<svg xmlns="http://www.w3.org/2000/svg" width="1818" height="44" viewBox="0 0 1818 44" fill="none"><path d="M1.5 43.0996C0.7 43.0996 0 42.4996 0 41.6996V20.0996C0 19.2996 0.7 18.5996 1.5 18.5996C2.3 18.5996 3 19.2996 3 20.0996V41.6996C3 42.4996 2.3 43.0996 1.5 43.0996Z" fill="#3A3A3A"></path><path d="M22.4996 43.0996C21.6996 43.0996 21.0996 42.4996 21.0996 41.6996V20.0996C21.0996 19.2996 21.6996 18.5996 22.4996 18.5996C23.2996 18.5996 23.9996 19.2996 23.9996 20.0996V41.6996C23.9996 42.4996 23.2996 43.0996 22.4996 43.0996Z" fill="#3A3A3A"></path><path d="M43.5996 43.0996C42.7996 43.0996 42.0996 42.4996 42.0996 41.6996V20.0996C42.0996 19.2996 42.7996 18.5996 43.5996 18.5996C44.3996 18.5996 44.9996 19.2996 44.9996 20.0996V41.6996C44.9996 42.4996 44.3996 43.0996 43.5996 43.0996Z" fill="#3A3A3A"></path><path d="M64.5992 43.0996C63.7992 43.0996 63.1992 42.4996 63.1992 41.6996V20.0996C63.1992 19.2996 63.7992 18.5996 64.5992 18.5996C65.3992 18.5996 66.0992 19.2996 66.0992 20.0996V41.6996C66.0992 42.4996 65.3992 43.0996 64.5992 43.0996Z" fill="#3A3A3A"></path><path d="M85.6992 43.0996C84.8992 43.0996 84.1992 42.4996 84.1992 41.6996V20.0996C84.1992 19.2996 84.8992 18.5996 85.6992 18.5996C86.4992 18.5996 87.0992 19.2996 87.0992 20.0996V41.6996C87.0992 42.4996 86.4992 43.0996 85.6992 43.0996Z" fill="#3A3A3A"></path><path d="M106.701 43.0996C105.901 43.0996 105.301 42.4996 105.301 41.6996V20.0996C105.301 19.2996 105.901 18.5996 106.701 18.5996C107.501 18.5996 108.201 19.2996 108.201 20.0996V41.6996C108.201 42.4996 107.501 43.0996 106.701 43.0996Z" fill="#3A3A3A"></path><path d="M127.801 43.0996C127.001 43.0996 126.301 42.4996 126.301 41.6996V20.0996C126.301 19.2996 127.001 18.5996 127.801 18.5996C128.601 18.5996 129.201 19.2996 129.201 20.0996V41.6996C129.201 42.4996 128.601 43.0996 127.801 43.0996Z" fill="#3A3A3A"></path><path d="M148.8 43.0996C148 43.0996 147.4 42.4996 147.4 41.6996V20.0996C147.4 19.2996 148 18.5996 148.8 18.5996C149.6 18.5996 150.3 19.2996 150.3 20.0996V41.6996C150.3 42.4996 149.6 43.0996 148.8 43.0996Z" fill="#3A3A3A"></path><path d="M169.9 43.0996C169 43.0996 168.4 42.4996 168.4 41.6996V20.0996C168.4 19.2996 169 18.5996 169.9 18.5996C170.7 18.5996 171.3 19.2996 171.3 20.0996V41.6996C171.3 42.4996 170.7 43.0996 169.9 43.0996Z" fill="#3A3A3A"></path><path d="M190.9 43.0996C190.1 43.0996 189.4 42.4996 189.4 41.6996V20.0996C189.4 19.2996 190.1 18.5996 190.9 18.5996C191.7 18.5996 192.4 19.2996 192.4 20.0996V41.6996C192.4 42.4996 191.7 43.0996 190.9 43.0996Z" fill="#3A3A3A"></path><path d="M211.9 43.1C211.1 43.1 210.5 42.5 210.5 41.7V1.5C210.5 0.7 211.1 0 211.9 0C212.7 0 213.4 0.7 213.4 1.5V41.7C213.4 42.5 212.7 43.1 211.9 43.1Z" fill="#3A3A3A"></path><path d="M233 43.0996C232.2 43.0996 231.5 42.4996 231.5 41.6996V20.0996C231.5 19.2996 232.2 18.5996 233 18.5996C233.8 18.5996 234.4 19.2996 234.4 20.0996V41.6996C234.4 42.4996 233.8 43.0996 233 43.0996Z" fill="#3A3A3A"></path><path d="M254 43.0996C253.2 43.0996 252.6 42.4996 252.6 41.6996V20.0996C252.6 19.2996 253.2 18.5996 254 18.5996C254.8 18.5996 255.5 19.2996 255.5 20.0996V41.6996C255.5 42.4996 254.8 43.0996 254 43.0996Z" fill="#3A3A3A"></path><path d="M275.1 43.0996C274.3 43.0996 273.6 42.4996 273.6 41.6996V20.0996C273.6 19.2996 274.3 18.5996 275.1 18.5996C275.9 18.5996 276.5 19.2996 276.5 20.0996V41.6996C276.5 42.4996 275.9 43.0996 275.1 43.0996Z" fill="#3A3A3A"></path><path d="M296.099 43.0996C295.299 43.0996 294.699 42.4996 294.699 41.6996V20.0996C294.699 19.2996 295.299 18.5996 296.099 18.5996C296.899 18.5996 297.599 19.2996 297.599 20.0996V41.6996C297.599 42.4996 296.899 43.0996 296.099 43.0996Z" fill="#3A3A3A"></path><path d="M317.199 43.0996C316.399 43.0996 315.699 42.4996 315.699 41.6996V20.0996C315.699 19.2996 316.399 18.5996 317.199 18.5996C317.999 18.5996 318.599 19.2996 318.599 20.0996V41.6996C318.599 42.4996 317.999 43.0996 317.199 43.0996Z" fill="#3A3A3A"></path><path d="M338.199 43.0996C337.399 43.0996 336.699 42.4996 336.699 41.6996V20.0996C336.699 19.2996 337.399 18.5996 338.199 18.5996C338.999 18.5996 339.699 19.2996 339.699 20.0996V41.6996C339.699 42.4996 338.999 43.0996 338.199 43.0996Z" fill="#3A3A3A"></path><path d="M359.301 43.0996C358.401 43.0996 357.801 42.4996 357.801 41.6996V20.0996C357.801 19.2996 358.401 18.5996 359.301 18.5996C360.101 18.5996 360.701 19.2996 360.701 20.0996V41.6996C360.701 42.4996 360.101 43.0996 359.301 43.0996Z" fill="#3A3A3A"></path><path d="M380.301 43.0996C379.501 43.0996 378.801 42.4996 378.801 41.6996V20.0996C378.801 19.2996 379.501 18.5996 380.301 18.5996C381.101 18.5996 381.801 19.2996 381.801 20.0996V41.6996C381.801 42.4996 381.101 43.0996 380.301 43.0996Z" fill="#3A3A3A"></path><path d="M401.3 43.0996C400.5 43.0996 399.9 42.4996 399.9 41.6996V20.0996C399.9 19.2996 400.5 18.5996 401.3 18.5996C402.1 18.5996 402.8 19.2996 402.8 20.0996V41.6996C402.8 42.4996 402.1 43.0996 401.3 43.0996Z" fill="#3A3A3A"></path><path d="M422.4 43.0996C421.6 43.0996 420.9 42.4996 420.9 41.6996V20.0996C420.9 19.2996 421.6 18.5996 422.4 18.5996C423.2 18.5996 423.8 19.2996 423.8 20.0996V41.6996C423.8 42.4996 423.2 43.0996 422.4 43.0996Z" fill="#3A3A3A"></path><path d="M442.4 44.0004C441.6 44.0004 441 43.3004 441 42.5004V2.30042C441 1.50042 441.6 0.900391 442.4 0.900391C443.2 0.900391 443.9 1.50042 443.9 2.30042V42.5004C443.9 43.3004 443.2 44.0004 442.4 44.0004Z" fill="#3A3A3A"></path><path d="M463.5 44C462.7 44 462 43.3 462 42.5V20.9C462 20.1 462.7 19.5 463.5 19.5C464.3 19.5 464.9 20.1 464.9 20.9V42.5C464.9 43.3 464.3 44 463.5 44Z" fill="#3A3A3A"></path><path d="M484.5 44C483.7 44 483.1 43.3 483.1 42.5V20.9C483.1 20.1 483.7 19.5 484.5 19.5C485.3 19.5 486 20.1 486 20.9V42.5C486 43.3 485.3 44 484.5 44Z" fill="#3A3A3A"></path><path d="M505.6 44C504.8 44 504.1 43.3 504.1 42.5V20.9C504.1 20.1 504.8 19.5 505.6 19.5C506.4 19.5 507 20.1 507 20.9V42.5C507 43.3 506.4 44 505.6 44Z" fill="#3A3A3A"></path><path d="M526.599 44C525.799 44 525.199 43.3 525.199 42.5V20.9C525.199 20.1 525.799 19.5 526.599 19.5C527.399 19.5 528.099 20.1 528.099 20.9V42.5C528.099 43.3 527.399 44 526.599 44Z" fill="#3A3A3A"></path><path d="M547.699 44C546.899 44 546.199 43.3 546.199 42.5V20.9C546.199 20.1 546.899 19.5 547.699 19.5C548.499 19.5 549.099 20.1 549.099 20.9V42.5C549.099 43.3 548.499 44 547.699 44Z" fill="#3A3A3A"></path><path d="M568.699 44C567.899 44 567.199 43.3 567.199 42.5V20.9C567.199 20.1 567.899 19.5 568.699 19.5C569.499 19.5 570.199 20.1 570.199 20.9V42.5C570.199 43.3 569.499 44 568.699 44Z" fill="#3A3A3A"></path><path d="M589.701 44C588.901 44 588.301 43.3 588.301 42.5V20.9C588.301 20.1 588.901 19.5 589.701 19.5C590.601 19.5 591.201 20.1 591.201 20.9V42.5C591.201 43.3 590.601 44 589.701 44Z" fill="#3A3A3A"></path><path d="M610.801 44C610.001 44 609.301 43.3 609.301 42.5V20.9C609.301 20.1 610.001 19.5 610.801 19.5C611.601 19.5 612.201 20.1 612.201 20.9V42.5C612.201 43.3 611.601 44 610.801 44Z" fill="#3A3A3A"></path><path d="M631.8 44C631 44 630.4 43.3 630.4 42.5V20.9C630.4 20.1 631 19.5 631.8 19.5C632.6 19.5 633.3 20.1 633.3 20.9V42.5C633.3 43.3 632.6 44 631.8 44Z" fill="#3A3A3A"></path><path d="M652.9 44C652.1 44 651.4 43.3 651.4 42.5V20.9C651.4 20.1 652.1 19.5 652.9 19.5C653.7 19.5 654.3 20.1 654.3 20.9V42.5C654.3 43.3 653.7 44 652.9 44Z" fill="#3A3A3A"></path><path d="M675.199 44.0004C674.399 44.0004 673.699 43.3004 673.699 42.5004V2.30042C673.699 1.50042 674.399 0.900391 675.199 0.900391C675.999 0.900391 676.599 1.50042 676.599 2.30042V42.5004C676.599 43.3004 675.999 44.0004 675.199 44.0004Z" fill="#3A3A3A"></path><path d="M696.199 44C695.399 44 694.699 43.3 694.699 42.5V20.9C694.699 20.1 695.399 19.5 696.199 19.5C696.999 19.5 697.699 20.1 697.699 20.9V42.5C697.699 43.3 696.999 44 696.199 44Z" fill="#3A3A3A"></path><path d="M717.299 44C716.399 44 715.799 43.3 715.799 42.5V20.9C715.799 20.1 716.399 19.5 717.299 19.5C718.099 19.5 718.699 20.1 718.699 20.9V42.5C718.699 43.3 718.099 44 717.299 44Z" fill="#3A3A3A"></path><path d="M738.299 44C737.499 44 736.799 43.3 736.799 42.5V20.9C736.799 20.1 737.499 19.5 738.299 19.5C739.099 19.5 739.799 20.1 739.799 20.9V42.5C739.799 43.3 739.099 44 738.299 44Z" fill="#3A3A3A"></path><path d="M759.298 44C758.498 44 757.898 43.3 757.898 42.5V20.9C757.898 20.1 758.498 19.5 759.298 19.5C760.098 19.5 760.798 20.1 760.798 20.9V42.5C760.798 43.3 760.098 44 759.298 44Z" fill="#3A3A3A"></path><path d="M780.398 44C779.598 44 778.898 43.3 778.898 42.5V20.9C778.898 20.1 779.598 19.5 780.398 19.5C781.198 19.5 781.798 20.1 781.798 20.9V42.5C781.798 43.3 781.198 44 780.398 44Z" fill="#3A3A3A"></path><path d="M801.4 44C800.6 44 800 43.3 800 42.5V20.9C800 20.1 800.6 19.5 801.4 19.5C802.2 19.5 802.9 20.1 802.9 20.9V42.5C802.9 43.3 802.2 44 801.4 44Z" fill="#3A3A3A"></path><path d="M822.5 44C821.7 44 821 43.3 821 42.5V20.9C821 20.1 821.7 19.5 822.5 19.5C823.3 19.5 823.9 20.1 823.9 20.9V42.5C823.9 43.3 823.3 44 822.5 44Z" fill="#3A3A3A"></path><path d="M843.5 44C842.7 44 842.1 43.3 842.1 42.5V20.9C842.1 20.1 842.7 19.5 843.5 19.5C844.3 19.5 845 20.1 845 20.9V42.5C845 43.3 844.3 44 843.5 44Z" fill="#3A3A3A"></path><path d="M864.6 44C863.8 44 863.1 43.3 863.1 42.5V20.9C863.1 20.1 863.8 19.5 864.6 19.5C865.4 19.5 866 20.1 866 20.9V42.5C866 43.3 865.4 44 864.6 44Z" fill="#3A3A3A"></path><path d="M885.6 44C884.8 44 884.1 43.3 884.1 42.5V20.9C884.1 20.1 884.8 19.5 885.6 19.5C886.4 19.5 887.1 20.1 887.1 20.9V42.5C887.1 43.3 886.4 44 885.6 44Z" fill="#3A3A3A"></path><path d="M907.9 44.0004C907.1 44.0004 906.4 43.3004 906.4 42.5004V2.30042C906.4 1.50042 907.1 0.900391 907.9 0.900391C908.7 0.900391 909.3 1.50042 909.3 2.30042V42.5004C909.3 43.3004 908.7 44.0004 907.9 44.0004Z" fill="#3A3A3A"></path><path d="M928.9 44C928.1 44 927.5 43.3 927.5 42.5V20.9C927.5 20.1 928.1 19.5 928.9 19.5C929.7 19.5 930.4 20.1 930.4 20.9V42.5C930.4 43.3 929.7 44 928.9 44Z" fill="#3A3A3A"></path><path d="M950 44C949.2 44 948.5 43.3 948.5 42.5V20.9C948.5 20.1 949.2 19.5 950 19.5C950.8 19.5 951.4 20.1 951.4 20.9V42.5C951.4 43.3 950.8 44 950 44Z" fill="#3A3A3A"></path><path d="M971 44C970.2 44 969.6 43.3 969.6 42.5V20.9C969.6 20.1 970.2 19.5 971 19.5C971.8 19.5 972.5 20.1 972.5 20.9V42.5C972.5 43.3 971.8 44 971 44Z" fill="#3A3A3A"></path><path d="M992.1 44C991.3 44 990.6 43.3 990.6 42.5V20.9C990.6 20.1 991.3 19.5 992.1 19.5C992.9 19.5 993.5 20.1 993.5 20.9V42.5C993.5 43.3 992.9 44 992.1 44Z" fill="#3A3A3A"></path><path d="M1013.1 44C1012.3 44 1011.6 43.3 1011.6 42.5V20.9C1011.6 20.1 1012.3 19.5 1013.1 19.5C1013.9 19.5 1014.6 20.1 1014.6 20.9V42.5C1014.6 43.3 1013.9 44 1013.1 44Z" fill="#3A3A3A"></path><path d="M1034.2 44C1033.3 44 1032.7 43.3 1032.7 42.5V20.9C1032.7 20.1 1033.3 19.5 1034.2 19.5C1035 19.5 1035.6 20.1 1035.6 20.9V42.5C1035.6 43.3 1035 44 1034.2 44Z" fill="#3A3A3A"></path><path d="M1055.2 44C1054.4 44 1053.7 43.3 1053.7 42.5V20.9C1053.7 20.1 1054.4 19.5 1055.2 19.5C1056 19.5 1056.7 20.1 1056.7 20.9V42.5C1056.7 43.3 1056 44 1055.2 44Z" fill="#3A3A3A"></path><path d="M1076.2 44C1075.4 44 1074.8 43.3 1074.8 42.5V20.9C1074.8 20.1 1075.4 19.5 1076.2 19.5C1077 19.5 1077.7 20.1 1077.7 20.9V42.5C1077.7 43.3 1077 44 1076.2 44Z" fill="#3A3A3A"></path><path d="M1097.3 44C1096.5 44 1095.8 43.3 1095.8 42.5V20.9C1095.8 20.1 1096.5 19.5 1097.3 19.5C1098.1 19.5 1098.7 20.1 1098.7 20.9V42.5C1098.7 43.3 1098.1 44 1097.3 44Z" fill="#3A3A3A"></path><path d="M1118.3 44C1117.5 44 1116.9 43.3 1116.9 42.5V20.9C1116.9 20.1 1117.5 19.5 1118.3 19.5C1119.1 19.5 1119.8 20.1 1119.8 20.9V42.5C1119.8 43.3 1119.1 44 1118.3 44Z" fill="#3A3A3A"></path><path d="M1140.6 44.0004C1139.8 44.0004 1139.2 43.3004 1139.2 42.5004V2.30042C1139.2 1.50042 1139.8 0.900391 1140.6 0.900391C1141.4 0.900391 1142.1 1.50042 1142.1 2.30042V42.5004C1142.1 43.3004 1141.4 44.0004 1140.6 44.0004Z" fill="#3A3A3A"></path><path d="M1161.7 44C1160.8 44 1160.2 43.3 1160.2 42.5V20.9C1160.2 20.1 1160.8 19.5 1161.7 19.5C1162.5 19.5 1163.1 20.1 1163.1 20.9V42.5C1163.1 43.3 1162.5 44 1161.7 44Z" fill="#3A3A3A"></path><path d="M1182.7 44C1181.9 44 1181.2 43.3 1181.2 42.5V20.9C1181.2 20.1 1181.9 19.5 1182.7 19.5C1183.5 19.5 1184.2 20.1 1184.2 20.9V42.5C1184.2 43.3 1183.5 44 1182.7 44Z" fill="#3A3A3A"></path><path d="M1203.7 44C1202.9 44 1202.3 43.3 1202.3 42.5V20.9C1202.3 20.1 1202.9 19.5 1203.7 19.5C1204.5 19.5 1205.2 20.1 1205.2 20.9V42.5C1205.2 43.3 1204.5 44 1203.7 44Z" fill="#3A3A3A"></path><path d="M1224.8 44C1224 44 1223.3 43.3 1223.3 42.5V20.9C1223.3 20.1 1224 19.5 1224.8 19.5C1225.6 19.5 1226.2 20.1 1226.2 20.9V42.5C1226.2 43.3 1225.6 44 1224.8 44Z" fill="#3A3A3A"></path><path d="M1245.8 44C1245 44 1244.4 43.3 1244.4 42.5V20.9C1244.4 20.1 1245 19.5 1245.8 19.5C1246.6 19.5 1247.3 20.1 1247.3 20.9V42.5C1247.3 43.3 1246.6 44 1245.8 44Z" fill="#3A3A3A"></path><path d="M1266.9 44C1266.1 44 1265.4 43.3 1265.4 42.5V20.9C1265.4 20.1 1266.1 19.5 1266.9 19.5C1267.7 19.5 1268.3 20.1 1268.3 20.9V42.5C1268.3 43.3 1267.7 44 1266.9 44Z" fill="#3A3A3A"></path><path d="M1287.9 44C1287.1 44 1286.5 43.3 1286.5 42.5V20.9C1286.5 20.1 1287.1 19.5 1287.9 19.5C1288.7 19.5 1289.4 20.1 1289.4 20.9V42.5C1289.4 43.3 1288.7 44 1287.9 44Z" fill="#3A3A3A"></path><path d="M1309 44C1308.2 44 1307.5 43.3 1307.5 42.5V20.9C1307.5 20.1 1308.2 19.5 1309 19.5C1309.8 19.5 1310.4 20.1 1310.4 20.9V42.5C1310.4 43.3 1309.8 44 1309 44Z" fill="#3A3A3A"></path><path d="M1330 44C1329.2 44 1328.5 43.3 1328.5 42.5V20.9C1328.5 20.1 1329.2 19.5 1330 19.5C1330.8 19.5 1331.5 20.1 1331.5 20.9V42.5C1331.5 43.3 1330.8 44 1330 44Z" fill="#3A3A3A"></path><path d="M1351.1 44C1350.2 44 1349.6 43.3 1349.6 42.5V20.9C1349.6 20.1 1350.2 19.5 1351.1 19.5C1351.9 19.5 1352.5 20.1 1352.5 20.9V42.5C1352.5 43.3 1351.9 44 1351.1 44Z" fill="#3A3A3A"></path><path d="M1373.3 44.0004C1372.5 44.0004 1371.9 43.3004 1371.9 42.5004V2.30042C1371.9 1.50042 1372.5 0.900391 1373.3 0.900391C1374.1 0.900391 1374.8 1.50042 1374.8 2.30042V42.5004C1374.8 43.3004 1374.1 44.0004 1373.3 44.0004Z" fill="#3A3A3A"></path><path d="M1394.4 44C1393.6 44 1392.9 43.3 1392.9 42.5V20.9C1392.9 20.1 1393.6 19.5 1394.4 19.5C1395.2 19.5 1395.8 20.1 1395.8 20.9V42.5C1395.8 43.3 1395.2 44 1394.4 44Z" fill="#3A3A3A"></path><path d="M1415.4 44C1414.6 44 1414 43.3 1414 42.5V20.9C1414 20.1 1414.6 19.5 1415.4 19.5C1416.2 19.5 1416.9 20.1 1416.9 20.9V42.5C1416.9 43.3 1416.2 44 1415.4 44Z" fill="#3A3A3A"></path><path d="M1436.5 44C1435.7 44 1435 43.3 1435 42.5V20.9C1435 20.1 1435.7 19.5 1436.5 19.5C1437.3 19.5 1437.9 20.1 1437.9 20.9V42.5C1437.9 43.3 1437.3 44 1436.5 44Z" fill="#3A3A3A"></path><path d="M1457.5 44C1456.7 44 1456.1 43.3 1456.1 42.5V20.9C1456.1 20.1 1456.7 19.5 1457.5 19.5C1458.3 19.5 1459 20.1 1459 20.9V42.5C1459 43.3 1458.3 44 1457.5 44Z" fill="#3A3A3A"></path><path d="M1478.6 44C1477.7 44 1477.1 43.3 1477.1 42.5V20.9C1477.1 20.1 1477.7 19.5 1478.6 19.5C1479.4 19.5 1480 20.1 1480 20.9V42.5C1480 43.3 1479.4 44 1478.6 44Z" fill="#3A3A3A"></path><path d="M1499.6 44C1498.8 44 1498.1 43.3 1498.1 42.5V20.9C1498.1 20.1 1498.8 19.5 1499.6 19.5C1500.4 19.5 1501.1 20.1 1501.1 20.9V42.5C1501.1 43.3 1500.4 44 1499.6 44Z" fill="#3A3A3A"></path><path d="M1520.6 44C1519.8 44 1519.2 43.3 1519.2 42.5V20.9C1519.2 20.1 1519.8 19.5 1520.6 19.5C1521.4 19.5 1522.1 20.1 1522.1 20.9V42.5C1522.1 43.3 1521.4 44 1520.6 44Z" fill="#3A3A3A"></path><path d="M1541.7 44C1540.9 44 1540.2 43.3 1540.2 42.5V20.9C1540.2 20.1 1540.9 19.5 1541.7 19.5C1542.5 19.5 1543.1 20.1 1543.1 20.9V42.5C1543.1 43.3 1542.5 44 1541.7 44Z" fill="#3A3A3A"></path><path d="M1562.7 44C1561.9 44 1561.3 43.3 1561.3 42.5V20.9C1561.3 20.1 1561.9 19.5 1562.7 19.5C1563.5 19.5 1564.2 20.1 1564.2 20.9V42.5C1564.2 43.3 1563.5 44 1562.7 44Z" fill="#3A3A3A"></path><path d="M1583.8 44C1583 44 1582.3 43.3 1582.3 42.5V20.9C1582.3 20.1 1583 19.5 1583.8 19.5C1584.6 19.5 1585.2 20.1 1585.2 20.9V42.5C1585.2 43.3 1584.6 44 1583.8 44Z" fill="#3A3A3A"></path><path d="M1606.1 44.0004C1605.3 44.0004 1604.6 43.3004 1604.6 42.5004V2.30042C1604.6 1.50042 1605.3 0.900391 1606.1 0.900391C1606.9 0.900391 1607.5 1.50042 1607.5 2.30042V42.5004C1607.5 43.3004 1606.9 44.0004 1606.1 44.0004Z" fill="#3A3A3A"></path><path d="M1627.1 44C1626.3 44 1625.6 43.3 1625.6 42.5V20.9C1625.6 20.1 1626.3 19.5 1627.1 19.5C1627.9 19.5 1628.6 20.1 1628.6 20.9V42.5C1628.6 43.3 1627.9 44 1627.1 44Z" fill="#3A3A3A"></path><path d="M1648.1 44C1647.3 44 1646.7 43.3 1646.7 42.5V20.9C1646.7 20.1 1647.3 19.5 1648.1 19.5C1649 19.5 1649.6 20.1 1649.6 20.9V42.5C1649.6 43.3 1649 44 1648.1 44Z" fill="#3A3A3A"></path><path d="M1669.2 44C1668.4 44 1667.7 43.3 1667.7 42.5V20.9C1667.7 20.1 1668.4 19.5 1669.2 19.5C1670 19.5 1670.6 20.1 1670.6 20.9V42.5C1670.6 43.3 1670 44 1669.2 44Z" fill="#3A3A3A"></path><path d="M1690.2 44C1689.4 44 1688.8 43.3 1688.8 42.5V20.9C1688.8 20.1 1689.4 19.5 1690.2 19.5C1691 19.5 1691.7 20.1 1691.7 20.9V42.5C1691.7 43.3 1691 44 1690.2 44Z" fill="#3A3A3A"></path><path d="M1711.3 44C1710.5 44 1709.8 43.3 1709.8 42.5V20.9C1709.8 20.1 1710.5 19.5 1711.3 19.5C1712.1 19.5 1712.7 20.1 1712.7 20.9V42.5C1712.7 43.3 1712.1 44 1711.3 44Z" fill="#3A3A3A"></path><path d="M1732.3 44C1731.5 44 1730.9 43.3 1730.9 42.5V20.9C1730.9 20.1 1731.5 19.5 1732.3 19.5C1733.1 19.5 1733.8 20.1 1733.8 20.9V42.5C1733.8 43.3 1733.1 44 1732.3 44Z" fill="#3A3A3A"></path><path d="M1753.4 44C1752.6 44 1751.9 43.3 1751.9 42.5V20.9C1751.9 20.1 1752.6 19.5 1753.4 19.5C1754.2 19.5 1754.8 20.1 1754.8 20.9V42.5C1754.8 43.3 1754.2 44 1753.4 44Z" fill="#3A3A3A"></path><path d="M1774.4 44C1773.6 44 1773 43.3 1773 42.5V20.9C1773 20.1 1773.6 19.5 1774.4 19.5C1775.2 19.5 1775.9 20.1 1775.9 20.9V42.5C1775.9 43.3 1775.2 44 1774.4 44Z" fill="#3A3A3A"></path><path d="M1795.5 44C1794.7 44 1794 43.3 1794 42.5V20.9C1794 20.1 1794.7 19.5 1795.5 19.5C1796.3 19.5 1796.9 20.1 1796.9 20.9V42.5C1796.9 43.3 1796.3 44 1795.5 44Z" fill="#3A3A3A"></path><path d="M1816.5 44C1815.7 44 1815 43.3 1815 42.5V20.9C1815 20.1 1815.7 19.5 1816.5 19.5C1817.3 19.5 1818 20.1 1818 20.9V42.5C1818 43.3 1817.3 44 1816.5 44Z" fill="#3A3A3A"></path></svg>