<svg xmlns="http://www.w3.org/2000/svg" width="162" height="25" viewBox="0 0 162 25" fill="none"><path d="M7.28693 23.3825C5.80966 23.3825 4.52415 23.0168 3.4304 22.2852C2.33665 21.5537 1.49148 20.5523 0.894886 19.281C0.298295 18.0097 0 16.5608 0 14.9344C0 13.3009 0.298295 11.8449 0.894886 10.5665C1.49858 9.28809 2.32599 8.27956 3.37713 7.54093C4.42827 6.80229 5.62855 6.43297 6.97798 6.43297C7.89418 6.43297 8.76065 6.61763 9.57741 6.98695C10.4013 7.34916 11.1257 7.87473 11.7507 8.56365C12.3828 9.25257 12.8764 10.0835 13.2315 11.0566C13.5938 12.0296 13.7749 13.1233 13.7749 14.3378V15.1475H0.820312V13.9649H12.4751C12.4751 12.7789 12.2337 11.71 11.7507 10.7583C11.2678 9.80655 10.6108 9.05016 9.77983 8.48908C8.94886 7.928 8.01491 7.64746 6.97798 7.64746C5.89134 7.64746 4.92187 7.95286 4.0696 8.56365C3.22443 9.16735 2.55327 9.98411 2.05611 11.0139C1.56605 12.0438 1.31037 13.1943 1.28906 14.4656V14.9983C1.28906 16.3619 1.52699 17.5871 2.00284 18.6737C2.4858 19.7533 3.17472 20.6091 4.0696 21.2412C4.96449 21.8662 6.03693 22.1787 7.28693 22.1787C8.18182 22.1787 8.94531 22.0296 9.57741 21.7313C10.2166 21.4259 10.7386 21.0566 11.1435 20.6233C11.5483 20.1901 11.8537 19.771 12.0597 19.3662L13.2422 19.8456C12.9936 20.3925 12.6065 20.9394 12.081 21.4862C11.5625 22.026 10.902 22.477 10.0994 22.8392C9.30398 23.2014 8.36648 23.3825 7.28693 23.3825Z" fill="#E93892"></path><path d="M21.4636 23.3825C20.1497 23.3825 19.0027 23.0203 18.0226 22.2959C17.0425 21.5715 16.2825 20.5736 15.7428 19.3023C15.2101 18.0239 14.9438 16.5573 14.9438 14.9024C14.9438 13.2618 15.2136 11.8058 15.7534 10.5345C16.3003 9.25612 17.0638 8.2547 18.0439 7.53027C19.024 6.79874 20.1675 6.43297 21.4743 6.43297C22.4118 6.43297 23.225 6.61408 23.9139 6.9763C24.6099 7.33141 25.1923 7.80371 25.6611 8.3932C26.1369 8.98269 26.4991 9.62899 26.7477 10.3321H26.8756V1.22345H28.1646V23.0416H26.9075V19.4727H26.7477C26.4849 20.1759 26.1192 20.8257 25.6504 21.4223C25.1817 22.0118 24.5993 22.4877 23.9033 22.8499C23.2072 23.205 22.394 23.3825 21.4636 23.3825ZM21.5808 22.1787C22.6888 22.1787 23.6369 21.8627 24.4253 21.2306C25.2207 20.5914 25.828 19.7249 26.247 18.6311C26.6732 17.5303 26.8862 16.2838 26.8862 14.8918C26.8862 13.4997 26.6732 12.2604 26.247 11.1737C25.828 10.08 25.2207 9.22061 24.4253 8.59561C23.6369 7.96351 22.6888 7.64746 21.5808 7.64746C20.4587 7.64746 19.4963 7.96706 18.6938 8.60627C17.8983 9.23837 17.2875 10.1013 16.8614 11.195C16.4423 12.2888 16.2328 13.521 16.2328 14.8918C16.2328 16.2625 16.4423 17.4983 16.8614 18.5992C17.2875 19.7 17.8983 20.5736 18.6938 21.2199C19.4963 21.8591 20.4587 22.1787 21.5808 22.1787Z" fill="#E93892"></path><path d="M31.6773 23.0416V6.678H32.9663V23.0416H31.6773ZM32.3271 3.78027C32.043 3.78027 31.7945 3.68084 31.5814 3.48198C31.3754 3.28311 31.2724 3.04164 31.2724 2.75755C31.2724 2.47345 31.3754 2.23198 31.5814 2.03311C31.7874 1.83425 32.0359 1.73482 32.3271 1.73482C32.6112 1.73482 32.8562 1.83425 33.0622 2.03311C33.2753 2.23198 33.3818 2.47345 33.3818 2.75755C33.3818 3.04164 33.2788 3.28311 33.0729 3.48198C32.8669 3.68084 32.6183 3.78027 32.3271 3.78027Z" fill="#E93892"></path><path d="M41.795 6.678V7.83922H34.6466V6.678H41.795ZM37.0649 2.75755H38.354V19.1744C38.354 19.8421 38.4818 20.3889 38.7375 20.8151C39.0003 21.2341 39.3412 21.5466 39.7602 21.7526C40.1864 21.9514 40.6409 22.0509 41.1239 22.0509C41.3582 22.0509 41.5607 22.0331 41.7311 21.9976C41.9087 21.9621 42.0756 21.9159 42.2318 21.8591L42.5514 23.0416C42.3526 23.1127 42.1324 23.173 41.8909 23.2227C41.6494 23.2796 41.3653 23.308 41.0386 23.308C40.3568 23.308 39.7105 23.1553 39.0997 22.8499C38.496 22.5445 38.006 22.1006 37.6295 21.5182C37.2531 20.9358 37.0649 20.2327 37.0649 19.4088V2.75755Z" fill="#E93892"></path><path d="M42.7136 4.53666V1.22345H60.1212V4.53666H53.3776V23.0416H49.4572V4.53666H42.7136Z" fill="#E93892"></path><path d="M64.1295 1.22345V23.0416H60.1771V1.22345H64.1295Z" fill="#E93892"></path><path d="M65.1095 1.22345H69.9461L76.4234 17.0331H76.6791L83.1564 1.22345H87.993V23.0416H84.2004V8.05229H83.998L77.9681 22.9777H75.1343L69.1045 8.02033H68.9021V23.0416H65.1095V1.22345Z" fill="#E93892"></path><path d="M92.9494 1.22345V23.0416H88.997V1.22345H92.9494Z" fill="#E93892"></path><path d="M111.859 1.22345V23.0416H108.343L98.0629 8.18013H97.8818V23.0416H93.9294V1.22345H97.4663L107.736 16.0956H107.928V1.22345H111.859Z" fill="#E93892"></path><path d="M127.482 8.19078C127.305 7.6155 127.06 7.10058 126.747 6.64604C126.442 6.18439 126.072 5.79022 125.639 5.46351C125.213 5.13681 124.723 4.89178 124.169 4.72843C123.615 4.55797 123.011 4.47274 122.358 4.47274C121.186 4.47274 120.142 4.76749 119.226 5.35698C118.31 5.94647 117.589 6.81294 117.063 7.95641C116.545 9.09277 116.285 10.4777 116.285 12.1112C116.285 13.759 116.545 15.1546 117.063 16.298C117.582 17.4415 118.303 18.3115 119.226 18.9081C120.149 19.4976 121.222 19.7923 122.443 19.7923C123.551 19.7923 124.51 19.5793 125.32 19.1531C126.136 18.727 126.765 18.1233 127.205 17.3421C127.646 16.5537 127.866 15.6304 127.866 14.5722L128.761 14.7107H122.837V11.6212H131.69V14.2419C131.69 16.1098 131.293 17.7256 130.497 19.0892C129.702 20.4529 128.608 21.504 127.216 22.2426C125.824 22.9742 124.226 23.3399 122.422 23.3399C120.412 23.3399 118.647 22.8889 117.127 21.9869C115.614 21.0779 114.432 19.7888 113.58 18.1198C112.734 16.4436 112.312 14.455 112.312 12.1539C112.312 10.3925 112.56 8.81933 113.057 7.43439C113.562 6.04945 114.265 4.87402 115.167 3.90811C116.069 2.9351 117.127 2.19647 118.342 1.6922C119.556 1.18084 120.877 0.925158 122.305 0.925158C123.512 0.925158 124.638 1.10272 125.682 1.45783C126.726 1.80584 127.653 2.303 128.462 2.94931C129.279 3.59561 129.95 4.36266 130.476 5.25044C131.001 6.13823 131.346 7.11834 131.509 8.19078H127.482Z" fill="#E93892"></path><path d="M140.519 21.7402H145.998V18.0566H140.519C140.018 18.0566 139.61 18.4646 139.61 18.9658V20.8426C139.61 21.3438 140.018 21.7402 140.519 21.7402Z" fill="#E93892"></path><path d="M160.126 18.0566H149.786V21.7402H160.126C160.616 21.7402 161.024 21.3438 161.024 20.8426V18.9658C161.024 18.4646 160.616 18.0566 160.126 18.0566Z" fill="#E93892"></path><path d="M155.031 13.0208H149.785V16.7044H155.031C155.532 16.7044 155.94 16.3081 155.94 15.8068V13.93C155.94 13.4288 155.532 13.0208 155.031 13.0208Z" fill="#E93892"></path><path d="M138.082 16.681H145.997V12.9974H138.082C137.581 12.9974 137.173 13.4054 137.173 13.9067V15.7834C137.173 16.273 137.581 16.681 138.082 16.681Z" fill="#E93892"></path><path d="M160.218 7.64697H149.785V11.3422H160.218C160.719 11.3422 161.127 10.9342 161.127 10.433V8.55619C161.127 8.05494 160.719 7.64697 160.218 7.64697Z" fill="#E93892"></path><path d="M141.136 11.3422H145.997V7.64697H141.136C140.646 7.64697 140.238 8.05494 140.238 8.55619V10.433C140.238 10.9342 140.646 11.3422 141.136 11.3422Z" fill="#E93892"></path><path d="M147.816 24.0833C147.455 24.0833 147.164 23.7918 147.164 23.4305V6.81932C147.164 6.45795 147.455 6.17818 147.816 6.17818C148.178 6.17818 148.469 6.45795 148.469 6.81932V23.4305C148.469 23.7918 148.178 24.0833 147.816 24.0833Z" fill="white"></path><path d="M149.402 0H146.231C145.8 0 145.45 0.349706 145.45 0.769356V4.02165C145.45 4.34804 145.66 4.63947 145.963 4.75604L147.059 5.16403C147.059 5.14849 147.059 5.12906 147.059 5.10575V3.17068C147.059 2.78601 147.362 2.48294 147.747 2.48294C148.131 2.48294 148.434 2.78601 148.434 3.17068V5.10575C148.434 5.12129 148.434 5.13294 148.434 5.14071L149.647 4.74437C149.961 4.63946 150.183 4.33639 150.183 3.99834V0.769356C150.183 0.349706 149.833 0 149.402 0Z" fill="white"></path></svg>