<svg xmlns="http://www.w3.org/2000/svg" width="162" height="26" viewBox="0 0 162 26" fill="none"><path d="M8.1142 24.341C6.63693 24.341 5.35142 23.9753 4.25767 23.2437C3.16392 22.5122 2.31875 21.5108 1.72216 20.2395C1.12557 18.9682 0.827271 17.5193 0.827271 15.8929C0.827271 14.2594 1.12557 12.8034 1.72216 11.525C2.32585 10.2466 3.15326 9.23806 4.2044 8.49942C5.25554 7.76078 6.45582 7.39147 7.80525 7.39147C8.72145 7.39147 9.58792 7.57613 10.4047 7.94545C11.2285 8.30766 11.953 8.83323 12.578 9.52215C13.2101 10.2111 13.7037 11.042 14.0588 12.015C14.421 12.9881 14.6021 14.0818 14.6021 15.2963V16.106H1.64758V14.9234H13.3024C13.3024 13.7373 13.0609 12.6685 12.578 11.7168C12.095 10.765 11.4381 10.0087 10.6071 9.44757C9.77613 8.88649 8.84219 8.60596 7.80525 8.60596C6.71861 8.60596 5.74915 8.91135 4.89687 9.52215C4.0517 10.1258 3.38054 10.9426 2.88338 11.9724C2.39332 13.0023 2.13764 14.1528 2.11633 15.4241V15.9568C2.11633 17.3204 2.35426 18.5456 2.83011 19.6322C3.31307 20.7118 4.00199 21.5676 4.89687 22.1997C5.79176 22.8247 6.8642 23.1372 8.1142 23.1372C9.00909 23.1372 9.77258 22.9881 10.4047 22.6898C11.0439 22.3844 11.5659 22.015 11.9707 21.5818C12.3756 21.1486 12.681 20.7295 12.8869 20.3247L14.0695 20.8041C13.8209 21.351 13.4338 21.8979 12.9082 22.4447C12.3898 22.9845 11.7293 23.4355 10.9267 23.7977C10.1312 24.1599 9.19375 24.341 8.1142 24.341Z" fill="#E93892"></path><path d="M22.2909 24.341C20.977 24.341 19.83 23.9788 18.8499 23.2544C17.8697 22.53 17.1098 21.5321 16.57 20.2608C16.0374 18.9824 15.771 17.5158 15.771 15.8609C15.771 14.2203 16.0409 12.7643 16.5807 11.493C17.1276 10.2146 17.8911 9.2132 18.8712 8.48877C19.8513 7.75723 20.9947 7.39147 22.3016 7.39147C23.2391 7.39147 24.0523 7.57258 24.7412 7.93479C25.4372 8.28991 26.0196 8.76221 26.4884 9.3517C26.9642 9.94118 27.3264 10.5875 27.575 11.2906H27.7028V2.18195H28.9919V24.0001H27.7348V20.4312H27.575C27.3122 21.1344 26.9464 21.7842 26.4777 22.3808C26.0089 22.9703 25.4266 23.4462 24.7305 23.8084C24.0345 24.1635 23.2213 24.341 22.2909 24.341ZM22.4081 23.1372C23.5161 23.1372 24.4642 22.8212 25.2526 22.1891C26.048 21.5498 26.6553 20.6834 27.0743 19.5896C27.5004 18.4888 27.7135 17.2423 27.7135 15.8503C27.7135 14.4582 27.5004 13.2189 27.0743 12.1322C26.6553 11.0385 26.048 10.1791 25.2526 9.55411C24.4642 8.92201 23.5161 8.60596 22.4081 8.60596C21.2859 8.60596 20.3236 8.92556 19.521 9.56476C18.7256 10.1969 18.1148 11.0598 17.6886 12.1535C17.2696 13.2473 17.0601 14.4795 17.0601 15.8503C17.0601 17.221 17.2696 18.4568 17.6886 19.5577C18.1148 20.6585 18.7256 21.5321 19.521 22.1784C20.3236 22.8176 21.2859 23.1372 22.4081 23.1372Z" fill="#E93892"></path><path d="M32.5045 24.0001V7.6365H33.7936V24.0001H32.5045ZM33.1544 4.73877C32.8703 4.73877 32.6217 4.63934 32.4087 4.44047C32.2027 4.24161 32.0997 4.00013 32.0997 3.71604C32.0997 3.43195 32.2027 3.19047 32.4087 2.99161C32.6146 2.79275 32.8632 2.69331 33.1544 2.69331C33.4385 2.69331 33.6835 2.79275 33.8895 2.99161C34.1026 3.19047 34.2091 3.43195 34.2091 3.71604C34.2091 4.00013 34.1061 4.24161 33.9001 4.44047C33.6942 4.63934 33.4456 4.73877 33.1544 4.73877Z" fill="#E93892"></path><path d="M42.6223 7.6365V8.79772H35.4739V7.6365H42.6223ZM37.8922 3.71604H39.1812V20.1329C39.1812 20.8006 39.3091 21.3474 39.5648 21.7736C39.8276 22.1926 40.1685 22.5051 40.5875 22.7111C41.0136 22.9099 41.4682 23.0094 41.9511 23.0094C42.1855 23.0094 42.3879 22.9916 42.5584 22.9561C42.7359 22.9206 42.9028 22.8744 43.0591 22.8176L43.3787 24.0001C43.1798 24.0712 42.9597 24.1315 42.7182 24.1812C42.4767 24.2381 42.1926 24.2665 41.8659 24.2665C41.1841 24.2665 40.5378 24.1138 39.927 23.8084C39.3233 23.503 38.8332 23.0591 38.4568 22.4767C38.0804 21.8943 37.8922 21.1912 37.8922 20.3673V3.71604Z" fill="#E93892"></path><path d="M43.5408 5.49516V2.18195H60.9485V5.49516H54.2049V24.0001H50.2844V5.49516H43.5408Z" fill="#E93892"></path><path d="M64.9567 2.18195V24.0001H61.0043V2.18195H64.9567Z" fill="#E93892"></path><path d="M65.9368 2.18195H70.7734L77.2507 17.9916H77.5064L83.9836 2.18195H88.8203V24.0001H85.0277V9.01079H84.8252L78.7954 23.9362H75.9616L69.9318 8.97882H69.7294V24.0001H65.9368V2.18195Z" fill="#E93892"></path><path d="M93.7767 2.18195V24.0001H89.8242V2.18195H93.7767Z" fill="#E93892"></path><path d="M112.686 2.18195V24.0001H109.171L98.8902 9.13863H98.7091V24.0001H94.7567V2.18195H98.2936L108.563 17.0541H108.755V2.18195H112.686Z" fill="#E93892"></path><path d="M128.309 9.14928C128.132 8.574 127.887 8.05908 127.574 7.60454C127.269 7.14289 126.9 6.74871 126.466 6.42201C126.04 6.0953 125.55 5.85027 124.996 5.68692C124.442 5.51647 123.839 5.43124 123.185 5.43124C122.013 5.43124 120.969 5.72598 120.053 6.31547C119.137 6.90496 118.416 7.77144 117.89 8.9149C117.372 10.0513 117.113 11.4362 117.113 13.0697C117.113 14.7175 117.372 16.1131 117.89 17.2565C118.409 18.4 119.13 19.27 120.053 19.8666C120.976 20.4561 122.049 20.7508 123.27 20.7508C124.378 20.7508 125.337 20.5378 126.147 20.1116C126.964 19.6855 127.592 19.0818 128.032 18.3006C128.473 17.5122 128.693 16.5889 128.693 15.5307L129.588 15.6692H123.665V12.5797H132.518V15.2004C132.518 17.0683 132.12 18.6841 131.324 20.0477C130.529 21.4114 129.435 22.4625 128.043 23.2011C126.651 23.9327 125.053 24.2984 123.249 24.2984C121.239 24.2984 119.474 23.8474 117.954 22.9454C116.442 22.0364 115.259 20.7473 114.407 19.0783C113.562 17.4021 113.139 15.4135 113.139 13.1123C113.139 11.351 113.388 9.77783 113.885 8.39289C114.389 7.00795 115.092 5.83252 115.994 4.86661C116.896 3.8936 117.954 3.15496 119.169 2.6507C120.383 2.13934 121.704 1.88365 123.132 1.88365C124.339 1.88365 125.465 2.06121 126.509 2.41633C127.553 2.76434 128.48 3.2615 129.29 3.9078C130.106 4.55411 130.778 5.32115 131.303 6.20894C131.829 7.09672 132.173 8.07684 132.336 9.14928H128.309Z" fill="#E93892"></path><path d="M141.346 22.6987H146.825V19.0151H141.346C140.845 19.0151 140.437 19.4231 140.437 19.9243V21.8011C140.437 22.3023 140.845 22.6987 141.346 22.6987Z" fill="#E93892"></path><path d="M160.953 19.0151H150.614V22.6987H160.953C161.443 22.6987 161.851 22.3023 161.851 21.8011V19.9243C161.851 19.4231 161.443 19.0151 160.953 19.0151Z" fill="#E93892"></path><path d="M155.858 13.9793H150.613V17.6629H155.858C156.36 17.6629 156.768 17.2666 156.768 16.7653V14.8885C156.768 14.3873 156.36 13.9793 155.858 13.9793Z" fill="#E93892"></path><path d="M138.909 17.6395H146.824V13.9559H138.909C138.408 13.9559 138 14.3639 138 14.8652V16.7419C138 17.2315 138.408 17.6395 138.909 17.6395Z" fill="#E93892"></path><path d="M161.045 8.60547H150.612V12.3007H161.045C161.547 12.3007 161.955 11.8927 161.955 11.3915V9.51469C161.955 9.01344 161.547 8.60547 161.045 8.60547Z" fill="#E93892"></path><path d="M141.963 12.3007H146.824V8.60547H141.963C141.473 8.60547 141.065 9.01344 141.065 9.51469V11.3915C141.065 11.8927 141.473 12.3007 141.963 12.3007Z" fill="#E93892"></path><path d="M148.644 25.0418C148.282 25.0418 147.991 24.7503 147.991 24.389V7.77781C147.991 7.41645 148.282 7.13668 148.644 7.13668C149.005 7.13668 149.297 7.41645 149.297 7.77781V24.389C149.297 24.7503 149.005 25.0418 148.644 25.0418Z" fill="black"></path><path d="M150.229 0.958496H147.059C146.627 0.958496 146.277 1.3082 146.277 1.72785V4.98014C146.277 5.30654 146.487 5.59797 146.79 5.71454L147.886 6.12253C147.886 6.10699 147.886 6.08756 147.886 6.06425V4.12918C147.886 3.7445 148.189 3.44143 148.574 3.44143C148.959 3.44143 149.262 3.7445 149.262 4.12918V6.06425C149.262 6.07979 149.262 6.09144 149.262 6.09921L150.474 5.70287C150.789 5.59796 151.01 5.29489 151.01 4.95684V1.72785C151.01 1.3082 150.66 0.958496 150.229 0.958496Z" fill="black"></path></svg>