<svg xmlns="http://www.w3.org/2000/svg" width="313" height="47" viewBox="0 0 313 47" fill="none"><path d="M202.248 40.1858C201.967 40.1878 201.695 40.2797 201.475 40.4469C201.255 40.614 201.099 40.8467 201.034 41.1079C200.968 41.3692 200.996 41.6438 201.113 41.8881C201.23 42.1323 201.429 42.3322 201.679 42.4557V43.8824H202.723V42.5006C202.993 42.395 203.215 42.2033 203.354 41.9582C203.492 41.7132 203.537 41.4299 203.481 41.1567C203.424 40.8835 203.271 40.6374 203.046 40.4603C202.821 40.2833 202.539 40.1862 202.248 40.1858Z" fill="white"></path><path d="M206.377 37.3978V35.2626C206.4 34.181 205.973 33.1349 205.19 32.3533C204.407 31.5717 203.333 31.1182 202.201 31.092C201.069 31.1182 199.994 31.5717 199.211 32.3533C198.429 33.1349 198.002 34.181 198.024 35.2626V37.3978H196.458V45.8787C196.458 46.1433 196.568 46.3971 196.764 46.5842C196.96 46.7713 197.225 46.8764 197.502 46.8764H206.899C207.176 46.8764 207.442 46.7713 207.638 46.5842C207.834 46.3971 207.944 46.1433 207.944 45.8787V37.3978H206.377ZM199.068 35.2626C199.046 34.4456 199.363 33.6533 199.95 33.0587C200.537 32.4642 201.346 32.1159 202.201 32.0898C203.056 32.1159 203.865 32.4642 204.452 33.0587C205.039 33.6533 205.356 34.4456 205.333 35.2626V37.3978H199.068V35.2626ZM197.502 45.8787V38.3956H206.899V45.8787H197.502Z" fill="white"></path><path d="M82.1828 38.7283C82.9337 38.7283 83.5735 38.4606 83.9979 37.9644L83.4495 37.4421C83.1165 37.8077 82.7052 37.984 82.2285 37.984C81.2818 37.984 80.5962 37.318 80.5962 36.3778C80.5962 35.4376 81.2818 34.7717 82.2285 34.7717C82.7052 34.7717 83.1165 34.948 83.4495 35.3071L83.9979 34.7913C83.5735 34.295 82.9337 34.0273 82.1894 34.0273C80.7856 34.0273 79.7409 35.0132 79.7409 36.3778C79.7409 37.7424 80.7856 38.7283 82.1828 38.7283Z" fill="white"></path><path d="M86.1723 38.7087C87.2562 38.7087 88.0331 37.9644 88.0331 36.9198C88.0331 35.8751 87.2562 35.1373 86.1723 35.1373C85.1016 35.1373 84.3181 35.8751 84.3181 36.9198C84.3181 37.9644 85.1016 38.7087 86.1723 38.7087ZM86.1723 38.0101C85.5847 38.0101 85.1407 37.5857 85.1407 36.9198C85.1407 36.2538 85.5847 35.8294 86.1723 35.8294C86.7665 35.8294 87.2105 36.2538 87.2105 36.9198C87.2105 37.5857 86.7665 38.0101 86.1723 38.0101Z" fill="white"></path><path d="M93.2142 35.1373C92.6592 35.1373 92.1891 35.3593 91.9084 35.7184C91.6668 35.3266 91.2424 35.1373 90.7331 35.1373C90.2565 35.1373 89.8517 35.3071 89.5905 35.6205V35.1765H88.8136V38.663H89.6297V36.8936C89.6297 36.2015 89.9953 35.849 90.5373 35.849C91.0335 35.849 91.3208 36.1493 91.3208 36.7696V38.663H92.1369V36.8936C92.1369 36.2015 92.5091 35.849 93.0445 35.849C93.5407 35.849 93.828 36.1493 93.828 36.7696V38.663H94.6441V36.6651C94.6441 35.6139 94.0565 35.1373 93.2142 35.1373Z" fill="white"></path><path d="M97.6197 35.1373C97.143 35.1373 96.7382 35.3005 96.464 35.6335V35.1765H95.687V39.9297H96.5032V38.2386C96.7839 38.5586 97.1757 38.7087 97.6197 38.7087C98.6382 38.7087 99.389 38.0036 99.389 36.9198C99.389 35.8424 98.6382 35.1373 97.6197 35.1373ZM97.5282 38.0101C96.9406 38.0101 96.4901 37.5857 96.4901 36.9198C96.4901 36.2538 96.9406 35.8294 97.5282 35.8294C98.1159 35.8294 98.5598 36.2538 98.5598 36.9198C98.5598 37.5857 98.1159 38.0101 97.5282 38.0101Z" fill="white"></path><path d="M100.94 35.6857V35.1765H100.163V38.663H100.979V36.972C100.979 36.2603 101.371 35.8947 101.991 35.8947C102.05 35.8947 102.109 35.9012 102.181 35.9143V35.1373C101.599 35.1373 101.175 35.3201 100.94 35.6857Z" fill="white"></path><path d="M104.186 35.1373C103.624 35.1373 103.082 35.2809 102.71 35.5682L103.03 36.1624C103.291 35.9469 103.696 35.8163 104.088 35.8163C104.669 35.8163 104.956 36.0971 104.956 36.5737V36.6259H104.055C102.997 36.6259 102.606 37.083 102.606 37.6641C102.606 38.2713 103.108 38.7087 103.905 38.7087C104.427 38.7087 104.806 38.539 105.002 38.2386V38.663H105.772V36.6194C105.772 35.6139 105.191 35.1373 104.186 35.1373ZM104.075 38.1146C103.657 38.1146 103.409 37.9252 103.409 37.6314C103.409 37.3768 103.559 37.1679 104.114 37.1679H104.956V37.5727C104.819 37.9318 104.473 38.1146 104.075 38.1146Z" fill="white"></path><path d="M81.4842 44.9226C82.7378 44.9226 83.332 44.2958 83.332 43.5646C83.332 41.8866 80.6224 42.5199 80.6224 41.5471C80.6224 41.201 80.9096 40.9268 81.6148 40.9268C82.0131 40.9268 82.4636 41.0443 82.8749 41.2859L83.1426 40.6265C82.7443 40.3653 82.1698 40.2217 81.6213 40.2217C80.3677 40.2217 79.7801 40.8485 79.7801 41.5862C79.7801 43.2838 82.4962 42.6374 82.4962 43.6233C82.4962 43.9629 82.1959 44.2175 81.4842 44.2175C80.9227 44.2175 80.3416 44.0086 79.976 43.7147L79.6822 44.3742C80.0608 44.7007 80.7725 44.9226 81.4842 44.9226Z" fill="white"></path><path d="M87.3729 43.1337C87.3729 42.0433 86.6286 41.3316 85.61 41.3316C84.5719 41.3316 83.808 42.0759 83.808 43.1141C83.808 44.1522 84.5653 44.9031 85.7341 44.9031C86.3347 44.9031 86.8244 44.7072 87.1378 44.335L86.7004 43.8323C86.4523 44.0869 86.1454 44.211 85.7536 44.211C85.1464 44.211 84.722 43.8845 84.6241 43.3752H87.3598C87.3663 43.2969 87.3729 43.1989 87.3729 43.1337ZM85.61 41.9845C86.1454 41.9845 86.5306 42.3306 86.5959 42.8333H84.6176C84.6959 42.324 85.0811 41.9845 85.61 41.9845Z" fill="white"></path><path d="M90.8403 41.3708V41.8344C90.553 41.4883 90.1221 41.3316 89.6324 41.3316C88.6335 41.3316 87.8696 41.9976 87.8696 43.0096C87.8696 44.0216 88.6335 44.7006 89.6324 44.7006C90.1025 44.7006 90.5139 44.5505 90.8011 44.2371V44.4199C90.8011 45.125 90.4616 45.4776 89.6912 45.4776C89.208 45.4776 88.7118 45.3144 88.4049 45.0598L88.0393 45.6735C88.4376 45.9999 89.084 46.1697 89.7369 46.1697C90.9578 46.1697 91.6173 45.5951 91.6173 44.3285V41.3708H90.8403ZM89.7565 44.0086C89.1362 44.0086 88.6922 43.6038 88.6922 43.0096C88.6922 42.422 89.1362 42.0237 89.7565 42.0237C90.3702 42.0237 90.8142 42.422 90.8142 43.0096C90.8142 43.6038 90.3702 44.0086 89.7565 44.0086Z" fill="white"></path><path d="M95.2497 41.3708V43.1337C95.2497 43.8323 94.8645 44.1848 94.2964 44.1848C93.7806 44.1848 93.4803 43.8845 93.4803 43.2512V41.3708H92.6641V43.3622C92.6641 44.4134 93.2713 44.9031 94.1658 44.9031C94.6163 44.9031 95.0277 44.7333 95.2889 44.4134V44.8573H96.0658V41.3708H95.2497Z" fill="white"></path><path d="M97.9114 41.8801V41.3708H97.1344V44.8573H97.9505V43.1663C97.9505 42.4546 98.3423 42.089 98.9626 42.089C99.0213 42.089 99.0801 42.0955 99.1519 42.1086V41.3316C98.5708 41.3316 98.1464 41.5144 97.9114 41.8801Z" fill="white"></path><path d="M101.157 41.3316C100.596 41.3316 100.054 41.4753 99.6815 41.7625L100.001 42.3567C100.263 42.1412 100.667 42.0106 101.059 42.0106C101.64 42.0106 101.928 42.2914 101.928 42.768V42.8203H101.026C99.9688 42.8203 99.577 43.2773 99.577 43.8584C99.577 44.4656 100.08 44.9031 100.876 44.9031C101.399 44.9031 101.777 44.7333 101.973 44.433V44.8573H102.744V42.8137C102.744 41.8082 102.163 41.3316 101.157 41.3316ZM101.046 44.3089C100.628 44.3089 100.38 44.1196 100.38 43.8257C100.38 43.5711 100.53 43.3622 101.085 43.3622H101.928V43.767C101.79 44.1261 101.444 44.3089 101.046 44.3089Z" fill="white"></path><path d="M147.555 38.7281C148.808 38.7281 149.402 38.1013 149.402 37.37C149.402 35.6921 146.693 36.3254 146.693 35.3525C146.693 35.0065 146.98 34.7323 147.685 34.7323C148.083 34.7323 148.534 34.8498 148.945 35.0914L149.213 34.4319C148.815 34.1708 148.24 34.0271 147.692 34.0271C146.438 34.0271 145.85 34.6539 145.85 35.3917C145.85 37.0893 148.567 36.4429 148.567 37.4288C148.567 37.7683 148.266 38.023 147.555 38.023C146.993 38.023 146.412 37.814 146.046 37.5202L145.753 38.1797C146.131 38.5061 146.843 38.7281 147.555 38.7281Z" fill="white"></path><path d="M151.498 35.1371C150.936 35.1371 150.394 35.2807 150.022 35.568L150.342 36.1622C150.603 35.9467 151.008 35.8161 151.4 35.8161C151.981 35.8161 152.268 36.0969 152.268 36.5735V36.6257H151.367C150.309 36.6257 149.917 37.0828 149.917 37.6639C149.917 38.2711 150.42 38.7085 151.217 38.7085C151.739 38.7085 152.118 38.5388 152.314 38.2384V38.6628H153.084V36.6192C153.084 35.6137 152.503 35.1371 151.498 35.1371ZM151.387 38.1144C150.969 38.1144 150.721 37.925 150.721 37.6312C150.721 37.3766 150.871 37.1676 151.426 37.1676H152.268V37.5724C152.131 37.9315 151.785 38.1144 151.387 38.1144Z" fill="white"></path><path d="M155.999 37.8924C155.875 37.9903 155.712 38.036 155.542 38.036C155.228 38.036 155.059 37.8532 155.059 37.5137V35.8553H155.992V35.2024H155.059V34.4058H154.243V35.2024H153.668V35.8553H154.243V37.5333C154.243 38.3037 154.68 38.7085 155.444 38.7085C155.738 38.7085 156.032 38.6302 156.227 38.4735L155.999 37.8924Z" fill="white"></path><path d="M157.31 34.6017C157.617 34.6017 157.832 34.3797 157.832 34.0924C157.832 33.8247 157.61 33.6223 157.31 33.6223C157.01 33.6223 156.788 33.8378 156.788 34.112C156.788 34.3862 157.01 34.6017 157.31 34.6017ZM156.899 38.6628H157.715V35.1762H156.899V38.6628Z" fill="white"></path><path d="M159.863 38.7085C160.843 38.7085 161.443 38.2841 161.443 37.6312C161.443 36.2666 159.289 36.8934 159.289 36.1883C159.289 35.9597 159.524 35.7965 160.02 35.7965C160.353 35.7965 160.686 35.8618 161.019 36.0577L161.332 35.4374C161.019 35.2481 160.49 35.1371 160.027 35.1371C159.086 35.1371 158.492 35.568 158.492 36.2274C158.492 37.6181 160.647 36.9914 160.647 37.6573C160.647 37.8989 160.431 38.0425 159.916 38.0425C159.478 38.0425 159.008 37.8989 158.701 37.6965L158.388 38.3168C158.701 38.5388 159.282 38.7085 159.863 38.7085Z" fill="white"></path><path d="M163.563 34.4319C163.733 34.4319 163.89 34.4907 164.014 34.5756L164.242 33.9618C164.059 33.8312 163.785 33.7725 163.504 33.7725C162.695 33.7725 162.257 34.2491 162.257 34.9804V35.2024H161.683V35.8553H162.257V38.6628H163.073V35.8553H164.007V35.2024H163.047V34.9934C163.047 34.6213 163.224 34.4319 163.563 34.4319Z" fill="white"></path><path d="M165.825 35.1371C165.263 35.1371 164.721 35.2807 164.349 35.568L164.669 36.1622C164.93 35.9467 165.335 35.8161 165.727 35.8161C166.308 35.8161 166.595 36.0969 166.595 36.5735V36.6257H165.694C164.636 36.6257 164.245 37.0828 164.245 37.6639C164.245 38.2711 164.747 38.7085 165.544 38.7085C166.066 38.7085 166.445 38.5388 166.641 38.2384V38.6628H167.411V36.6192C167.411 35.6137 166.83 35.1371 165.825 35.1371ZM165.714 38.1144C165.296 38.1144 165.048 37.925 165.048 37.6312C165.048 37.3766 165.198 37.1676 165.753 37.1676H166.595V37.5724C166.458 37.9315 166.112 38.1144 165.714 38.1144Z" fill="white"></path><path d="M170.084 38.0099C169.483 38.0099 169.026 37.5986 169.026 36.9195C169.026 36.247 169.483 35.8292 170.084 35.8292C170.43 35.8292 170.743 35.9793 170.952 36.3123L171.579 35.9467C171.311 35.4178 170.769 35.1371 170.09 35.1371C168.987 35.1371 168.203 35.8749 168.203 36.9195C168.203 37.8401 168.81 38.5257 169.705 38.6759L169.542 39.2831H169.744C169.992 39.2831 170.09 39.3745 170.09 39.4985C170.09 39.6422 169.986 39.7336 169.744 39.7336C169.581 39.7336 169.437 39.7009 169.3 39.6291L169.15 40.0143C169.313 40.1058 169.516 40.1515 169.751 40.1515C170.286 40.1515 170.639 39.9099 170.639 39.5312C170.639 39.2504 170.456 39.0284 170.071 38.9827L170.142 38.7085C170.795 38.6955 171.318 38.4016 171.579 37.8924L170.952 37.5267C170.743 37.8597 170.43 38.0099 170.084 38.0099Z" fill="white"></path><path d="M173.27 34.2687C173.505 34.2687 173.727 34.6996 174.158 34.6996C174.576 34.6996 174.85 34.3536 174.863 33.8443H174.426C174.413 34.0794 174.289 34.2165 174.106 34.2165C173.871 34.2165 173.649 33.7855 173.218 33.7855C172.8 33.7855 172.526 34.1251 172.513 34.6604H172.95C172.963 34.4123 173.087 34.2687 173.27 34.2687ZM173.616 35.1371C173.055 35.1371 172.513 35.2807 172.141 35.568L172.461 36.1622C172.722 35.9467 173.127 35.8161 173.518 35.8161C174.099 35.8161 174.387 36.0969 174.387 36.5735V36.6257H173.486C172.428 36.6257 172.036 37.0828 172.036 37.6639C172.036 38.2711 172.539 38.7085 173.336 38.7085C173.858 38.7085 174.237 38.5388 174.432 38.2384V38.6628H175.203V36.6192C175.203 35.6137 174.622 35.1371 173.616 35.1371ZM173.505 38.1144C173.087 38.1144 172.839 37.925 172.839 37.6312C172.839 37.3766 172.989 37.1676 173.544 37.1676H174.387V37.5724C174.25 37.9315 173.904 38.1144 173.505 38.1144Z" fill="white"></path><path d="M177.849 38.7085C178.933 38.7085 179.71 37.9642 179.71 36.9195C179.71 35.8749 178.933 35.1371 177.849 35.1371C176.778 35.1371 175.995 35.8749 175.995 36.9195C175.995 37.9642 176.778 38.7085 177.849 38.7085ZM177.849 38.0099C177.262 38.0099 176.818 37.5855 176.818 36.9195C176.818 36.2536 177.262 35.8292 177.849 35.8292C178.443 35.8292 178.887 36.2536 178.887 36.9195C178.887 37.5855 178.443 38.0099 177.849 38.0099Z" fill="white"></path><path d="M149.259 43.943C148.965 44.1128 148.645 44.1781 148.318 44.1781C147.352 44.1781 146.667 43.4991 146.667 42.5719C146.667 41.6252 147.352 40.9658 148.325 40.9658C148.815 40.9658 149.226 41.129 149.585 41.4881L150.12 40.9658C149.69 40.4761 149.05 40.2214 148.286 40.2214C146.856 40.2214 145.811 41.2073 145.811 42.5719C145.811 43.9365 146.856 44.9224 148.273 44.9224C148.919 44.9224 149.585 44.7265 150.062 44.3413V42.5197H149.259V43.943Z" fill="white"></path><path d="M152.435 41.3314C151.873 41.3314 151.331 41.475 150.959 41.7623L151.279 42.3565C151.54 42.141 151.945 42.0104 152.337 42.0104C152.918 42.0104 153.205 42.2912 153.205 42.7678V42.82H152.304C151.247 42.82 150.855 43.2771 150.855 43.8582C150.855 44.4654 151.358 44.9028 152.154 44.9028C152.676 44.9028 153.055 44.7331 153.251 44.4327V44.8571H154.021V42.8135C154.021 41.808 153.44 41.3314 152.435 41.3314ZM152.324 44.3087C151.906 44.3087 151.658 44.1193 151.658 43.8255C151.658 43.5709 151.808 43.362 152.363 43.362H153.205V43.7668C153.068 44.1259 152.722 44.3087 152.324 44.3087Z" fill="white"></path><path d="M155.846 41.8798V41.3706H155.069V44.8571H155.885V43.1661C155.885 42.4544 156.277 42.0888 156.897 42.0888C156.956 42.0888 157.015 42.0953 157.086 42.1084V41.3314C156.505 41.3314 156.081 41.5142 155.846 41.8798Z" fill="white"></path><path d="M159.091 41.3314C158.53 41.3314 157.988 41.475 157.616 41.7623L157.936 42.3565C158.197 42.141 158.602 42.0104 158.994 42.0104C159.575 42.0104 159.862 42.2912 159.862 42.7678V42.82H158.961C157.903 42.82 157.511 43.2771 157.511 43.8582C157.511 44.4654 158.014 44.9028 158.811 44.9028C159.333 44.9028 159.712 44.7331 159.908 44.4327V44.8571H160.678V42.8135C160.678 41.808 160.097 41.3314 159.091 41.3314ZM158.98 44.3087C158.563 44.3087 158.315 44.1193 158.315 43.8255C158.315 43.5709 158.465 43.362 159.02 43.362H159.862V43.7668C159.725 44.1259 159.379 44.3087 158.98 44.3087Z" fill="white"></path><path d="M163.704 41.3314C163.195 41.3314 162.77 41.5011 162.502 41.8211V41.3706H161.725V44.8571H162.542V43.0943C162.542 42.3956 162.933 42.0431 163.514 42.0431C164.037 42.0431 164.344 42.3434 164.344 42.9637V44.8571H165.16V42.8592C165.16 41.808 164.54 41.3314 163.704 41.3314Z" fill="white"></path><path d="M168.062 44.0867C167.938 44.1846 167.775 44.2303 167.605 44.2303C167.292 44.2303 167.122 44.0475 167.122 43.708V42.0496H168.056V41.3967H167.122V40.6001H166.306V41.3967H165.732V42.0496H166.306V43.7276C166.306 44.498 166.744 44.9028 167.508 44.9028C167.801 44.9028 168.095 44.8245 168.291 44.6678L168.062 44.0867Z" fill="white"></path><path d="M169.374 40.796C169.681 40.796 169.896 40.574 169.896 40.2867C169.896 40.019 169.674 39.8166 169.374 39.8166C169.073 39.8166 168.851 40.0321 168.851 40.3063C168.851 40.5805 169.073 40.796 169.374 40.796ZM168.962 44.8571H169.779V41.3706H168.962V44.8571Z" fill="white"></path><path d="M173.448 40.0125V41.8015C173.174 41.4816 172.776 41.3314 172.325 41.3314C171.313 41.3314 170.562 42.03 170.562 43.1138C170.562 44.1977 171.313 44.9028 172.325 44.9028C172.802 44.9028 173.207 44.7396 173.481 44.4066V44.8571H174.264V40.0125H173.448ZM172.423 44.2042C171.836 44.2042 171.385 43.7798 171.385 43.1138C171.385 42.4479 171.836 42.0235 172.423 42.0235C173.011 42.0235 173.461 42.4479 173.461 43.1138C173.461 43.7798 173.011 44.2042 172.423 44.2042Z" fill="white"></path><path d="M176.664 41.3314C176.103 41.3314 175.561 41.475 175.188 41.7623L175.508 42.3565C175.77 42.141 176.174 42.0104 176.566 42.0104C177.147 42.0104 177.435 42.2912 177.435 42.7678V42.82H176.533C175.476 42.82 175.084 43.2771 175.084 43.8582C175.084 44.4654 175.587 44.9028 176.383 44.9028C176.906 44.9028 177.284 44.7331 177.48 44.4327V44.8571H178.251V42.8135C178.251 41.808 177.67 41.3314 176.664 41.3314ZM176.553 44.3087C176.135 44.3087 175.887 44.1193 175.887 43.8255C175.887 43.5709 176.037 43.362 176.592 43.362H177.435V43.7668C177.297 44.1259 176.951 44.3087 176.553 44.3087Z" fill="white"></path><path d="M216.847 34.0924H214.966V38.6628H215.815V37.3439H216.847C218.048 37.3439 218.792 36.7237 218.792 35.7182C218.792 34.7062 218.048 34.0924 216.847 34.0924ZM216.808 36.6257H215.815V34.8106H216.808C217.552 34.8106 217.937 35.1436 217.937 35.7182C217.937 36.2927 217.552 36.6257 216.808 36.6257Z" fill="white"></path><path d="M220.307 35.6855V35.1763H219.53V38.6628H220.346V36.9718C220.346 36.2601 220.738 35.8945 221.358 35.8945C221.417 35.8945 221.475 35.901 221.547 35.914V35.1371C220.966 35.1371 220.542 35.3199 220.307 35.6855Z" fill="white"></path><path d="M222.651 34.6017C222.958 34.6017 223.173 34.3797 223.173 34.0924C223.173 33.8247 222.951 33.6223 222.651 33.6223C222.351 33.6223 222.129 33.8378 222.129 34.112C222.129 34.3862 222.351 34.6017 222.651 34.6017ZM222.24 38.6628H223.056V35.1763H222.24V38.6628Z" fill="white"></path><path d="M226.608 35.1763L225.492 37.7618L224.408 35.1763H223.559L225.054 38.6628H225.896L227.392 35.1763H226.608Z" fill="white"></path><path d="M229.125 35.1371C228.564 35.1371 228.022 35.2807 227.65 35.568L227.97 36.1622C228.231 35.9467 228.635 35.8161 229.027 35.8161C229.608 35.8161 229.896 36.0969 229.896 36.5735V36.6257H228.995C227.937 36.6257 227.545 37.0828 227.545 37.6639C227.545 38.2711 228.048 38.7085 228.844 38.7085C229.367 38.7085 229.745 38.5388 229.941 38.2384V38.6628H230.712V36.6192C230.712 35.6137 230.131 35.1371 229.125 35.1371ZM229.014 38.1144C228.596 38.1144 228.348 37.925 228.348 37.6312C228.348 37.3766 228.498 37.1676 229.053 37.1676H229.896V37.5724C229.758 37.9315 229.412 38.1144 229.014 38.1144Z" fill="white"></path><path d="M233.391 38.7085C234.07 38.7085 234.612 38.4147 234.879 37.8924L234.253 37.5267C234.044 37.8597 233.73 38.0099 233.384 38.0099C232.783 38.0099 232.326 37.5986 232.326 36.9195C232.326 36.247 232.783 35.8292 233.384 35.8292C233.73 35.8292 234.044 35.9793 234.253 36.3123L234.879 35.9467C234.612 35.4178 234.07 35.1371 233.391 35.1371C232.287 35.1371 231.504 35.8749 231.504 36.9195C231.504 37.9642 232.287 38.7085 233.391 38.7085Z" fill="white"></path><path d="M235.996 34.6017C236.303 34.6017 236.518 34.3797 236.518 34.0924C236.518 33.8247 236.297 33.6223 235.996 33.6223C235.696 33.6223 235.474 33.8378 235.474 34.112C235.474 34.3862 235.696 34.6017 235.996 34.6017ZM235.585 38.6628H236.401V35.1763H235.585V38.6628Z" fill="white"></path><path d="M240.071 33.8182V35.6072C239.797 35.2872 239.398 35.1371 238.948 35.1371C237.936 35.1371 237.185 35.8357 237.185 36.9195C237.185 38.0034 237.936 38.7085 238.948 38.7085C239.424 38.7085 239.829 38.5453 240.103 38.2123V38.6628H240.887V33.8182H240.071ZM239.046 38.0099C238.458 38.0099 238.008 37.5855 238.008 36.9195C238.008 36.2536 238.458 35.8292 239.046 35.8292C239.633 35.8292 240.084 36.2536 240.084 36.9195C240.084 37.5855 239.633 38.0099 239.046 38.0099Z" fill="white"></path><path d="M243.287 35.1371C242.725 35.1371 242.183 35.2807 241.811 35.568L242.131 36.1622C242.392 35.9467 242.797 35.8161 243.189 35.8161C243.77 35.8161 244.057 36.0969 244.057 36.5735V36.6257H243.156C242.098 36.6257 241.706 37.0828 241.706 37.6639C241.706 38.2711 242.209 38.7085 243.006 38.7085C243.528 38.7085 243.907 38.5388 244.103 38.2384V38.6628H244.873V36.6192C244.873 35.6137 244.292 35.1371 243.287 35.1371ZM243.176 38.1144C242.758 38.1144 242.51 37.925 242.51 37.6312C242.51 37.3766 242.66 37.1676 243.215 37.1676H244.057V37.5724C243.92 37.9315 243.574 38.1144 243.176 38.1144Z" fill="white"></path><path d="M248.551 33.8182V35.6072C248.277 35.2872 247.878 35.1371 247.428 35.1371C246.416 35.1371 245.665 35.8357 245.665 36.9195C245.665 38.0034 246.416 38.7085 247.428 38.7085C247.905 38.7085 248.309 38.5453 248.584 38.2123V38.6628H249.367V33.8182H248.551ZM247.526 38.0099C246.938 38.0099 246.488 37.5855 246.488 36.9195C246.488 36.2536 246.938 35.8292 247.526 35.8292C248.114 35.8292 248.564 36.2536 248.564 36.9195C248.564 37.5855 248.114 38.0099 247.526 38.0099Z" fill="white"></path><path d="M253.712 36.9391C253.712 35.8488 252.968 35.1371 251.95 35.1371C250.911 35.1371 250.148 35.8814 250.148 36.9195C250.148 37.9577 250.905 38.7085 252.074 38.7085C252.674 38.7085 253.164 38.5126 253.477 38.1405L253.04 37.6377C252.792 37.8924 252.485 38.0164 252.093 38.0164C251.486 38.0164 251.062 37.69 250.964 37.1807H253.699C253.706 37.1023 253.712 37.0044 253.712 36.9391ZM251.95 35.79C252.485 35.79 252.87 36.136 252.935 36.6388H250.957C251.035 36.1295 251.421 35.79 251.95 35.79Z" fill="white"></path><path d="M216.847 40.2867H214.966V44.8571H215.815V43.5382H216.847C218.048 43.5382 218.792 42.918 218.792 41.9125C218.792 40.9005 218.048 40.2867 216.847 40.2867ZM216.808 42.82H215.815V41.0049H216.808C217.552 41.0049 217.937 41.3379 217.937 41.9125C217.937 42.487 217.552 42.82 216.808 42.82Z" fill="white"></path><path d="M220.307 41.8798V41.3706H219.53V44.8571H220.346V43.1661C220.346 42.4544 220.738 42.0888 221.358 42.0888C221.417 42.0888 221.475 42.0953 221.547 42.1084V41.3314C220.966 41.3314 220.542 41.5142 220.307 41.8798Z" fill="white"></path><path d="M223.775 44.9028C224.859 44.9028 225.636 44.1585 225.636 43.1138C225.636 42.0692 224.859 41.3314 223.775 41.3314C222.704 41.3314 221.92 42.0692 221.92 43.1138C221.92 44.1585 222.704 44.9028 223.775 44.9028ZM223.775 44.2042C223.187 44.2042 222.743 43.7798 222.743 43.1138C222.743 42.4479 223.187 42.0235 223.775 42.0235C224.369 42.0235 224.813 42.4479 224.813 43.1138C224.813 43.7798 224.369 44.2042 223.775 44.2042Z" fill="white"></path><path d="M228.283 44.0867C228.159 44.1846 227.996 44.2303 227.826 44.2303C227.513 44.2303 227.343 44.0475 227.343 43.708V42.0496H228.277V41.3967H227.343V40.6001H226.527V41.3967H225.952V42.0496H226.527V43.7276C226.527 44.498 226.964 44.9028 227.728 44.9028C228.022 44.9028 228.316 44.8245 228.512 44.6678L228.283 44.0867Z" fill="white"></path><path d="M232.346 43.1334C232.346 42.0431 231.602 41.3314 230.583 41.3314C229.545 41.3314 228.781 42.0757 228.781 43.1138C228.781 44.152 229.539 44.9028 230.707 44.9028C231.308 44.9028 231.798 44.707 232.111 44.3348L231.674 43.8321C231.425 44.0867 231.119 44.2107 230.727 44.2107C230.12 44.2107 229.695 43.8843 229.597 43.375H232.333C232.34 43.2967 232.346 43.1987 232.346 43.1334ZM230.583 41.9843C231.119 41.9843 231.504 42.3303 231.569 42.8331H229.591C229.669 42.3238 230.054 41.9843 230.583 41.9843Z" fill="white"></path><path d="M235.814 41.3706V41.8341C235.526 41.4881 235.095 41.3314 234.606 41.3314C233.607 41.3314 232.843 41.9974 232.843 43.0094C232.843 44.0214 233.607 44.7004 234.606 44.7004C235.076 44.7004 235.487 44.5503 235.774 44.2369V44.4197C235.774 45.1248 235.435 45.4774 234.664 45.4774C234.181 45.4774 233.685 45.3142 233.378 45.0595L233.013 45.6733C233.411 45.9997 234.057 46.1695 234.71 46.1695C235.931 46.1695 236.59 45.5949 236.59 44.3283V41.3706H235.814ZM234.73 44.0083C234.109 44.0083 233.665 43.6035 233.665 43.0094C233.665 42.4218 234.109 42.0235 234.73 42.0235C235.343 42.0235 235.787 42.4218 235.787 43.0094C235.787 43.6035 235.343 44.0083 234.73 44.0083Z" fill="white"></path><path d="M238.075 40.796C238.382 40.796 238.597 40.574 238.597 40.2867C238.597 40.019 238.375 39.8166 238.075 39.8166C237.774 39.8166 237.552 40.0321 237.552 40.3063C237.552 40.5805 237.774 40.796 238.075 40.796ZM237.663 44.8571H238.48V41.3706H237.663V44.8571Z" fill="white"></path><path d="M242.149 40.0125V41.8015C241.875 41.4816 241.477 41.3314 241.026 41.3314C240.014 41.3314 239.263 42.03 239.263 43.1138C239.263 44.1977 240.014 44.9028 241.026 44.9028C241.503 44.9028 241.908 44.7396 242.182 44.4066V44.8571H242.966V40.0125H242.149ZM241.124 44.2042C240.537 44.2042 240.086 43.7798 240.086 43.1138C240.086 42.4479 240.537 42.0235 241.124 42.0235C241.712 42.0235 242.162 42.4479 242.162 43.1138C242.162 43.7798 241.712 44.2042 241.124 44.2042Z" fill="white"></path><path d="M245.365 41.3314C244.804 41.3314 244.262 41.475 243.89 41.7623L244.209 42.3565C244.471 42.141 244.875 42.0104 245.267 42.0104C245.848 42.0104 246.136 42.2912 246.136 42.7678V42.82H245.235C244.177 42.82 243.785 43.2771 243.785 43.8582C243.785 44.4654 244.288 44.9028 245.084 44.9028C245.607 44.9028 245.985 44.7331 246.181 44.4327V44.8571H246.952V42.8135C246.952 41.808 246.371 41.3314 245.365 41.3314ZM245.254 44.3087C244.836 44.3087 244.588 44.1193 244.588 43.8255C244.588 43.5709 244.738 43.362 245.293 43.362H246.136V43.7668C245.998 44.1259 245.652 44.3087 245.254 44.3087Z" fill="white"></path><path d="M66.4991 31.092L59.4937 33.3235V40.0177C59.4937 43.7153 62.6297 46.712 66.4991 46.712C70.3686 46.712 73.5046 43.7153 73.5046 40.0177V33.3235L66.4991 31.092ZM72.1911 40.0177C72.1911 43.0214 69.6425 45.4568 66.4991 45.4568C63.3558 45.4568 60.8072 43.0214 60.8072 40.0177V34.2648L66.4991 32.3472L72.1911 34.2648V40.0177Z" fill="white"></path><path d="M64.0608 38.258C63.9999 38.1995 63.9275 38.1532 63.8479 38.1215C63.7682 38.0899 63.6828 38.0736 63.5965 38.0736C63.5102 38.0736 63.4248 38.0899 63.3451 38.1215C63.2654 38.1532 63.193 38.1995 63.1322 38.258C63.071 38.3161 63.0225 38.3853 62.9894 38.4614C62.9563 38.5375 62.9392 38.6192 62.9392 38.7016C62.9392 38.7841 62.9563 38.8657 62.9894 38.9418C63.0225 39.018 63.071 39.0871 63.1322 39.1453L65.4929 41.4011L65.5312 41.4377C65.5888 41.4929 65.6572 41.5366 65.7324 41.5664C65.8077 41.5963 65.8884 41.6116 65.9699 41.6116C66.0514 41.6116 66.1322 41.5963 66.2074 41.5664C66.2827 41.5366 66.3511 41.4929 66.4087 41.4377L70.4861 37.5415C70.5438 37.4864 70.5896 37.4211 70.6208 37.3491C70.652 37.2772 70.6681 37.2001 70.6681 37.1222C70.6681 37.0443 70.652 36.9672 70.6208 36.8952C70.5896 36.8233 70.5438 36.758 70.4861 36.7029L70.435 36.6541C70.3774 36.599 70.3091 36.5553 70.2338 36.5254C70.1585 36.4956 70.0778 36.4802 69.9963 36.4802C69.9148 36.4802 69.8341 36.4956 69.7588 36.5254C69.6835 36.5553 69.6151 36.599 69.5575 36.6541L65.969 40.0814L64.0608 38.258Z" fill="white"></path><path fill-rule="evenodd" clip-rule="evenodd" d="M126.134 37.9602C125.212 37.8337 124.368 37.3938 123.758 36.7212C123.148 36.0486 122.812 35.1883 122.812 34.2982V33.805C122.812 32.852 123.622 32.0786 124.619 32.0786H126.019C126.254 31.5014 126.841 31.092 127.528 31.092H134.615C134.941 31.0922 135.259 31.1865 135.529 31.3625C135.798 31.5385 136.005 31.7881 136.124 32.0786H137.524C138.521 32.0786 139.33 32.852 139.33 33.805V34.2982C139.331 35.1883 138.995 36.0486 138.385 36.7212C137.775 37.3938 136.931 37.8337 136.009 37.9602C135.791 38.6389 135.423 39.2648 134.929 39.7954C134.436 40.326 133.828 40.7489 133.149 41.0352L133.297 42.4617C133.302 42.511 133.328 42.5801 133.415 42.663C133.504 42.7488 133.639 42.8307 133.8 42.8869C134.092 42.9885 134.438 43.1572 134.719 43.4473C135.013 43.7531 135.201 44.1605 135.201 44.6567V45.3966H136.491C136.697 45.3966 136.894 45.4746 137.039 45.6133C137.184 45.7521 137.266 45.9403 137.266 46.1365C137.266 46.3328 137.184 46.5209 137.039 46.6597C136.894 46.7985 136.697 46.8764 136.491 46.8764H125.651C125.446 46.8764 125.249 46.7985 125.104 46.6597C124.959 46.5209 124.877 46.3328 124.877 46.1365C124.877 45.9403 124.959 45.7521 125.104 45.6133C125.249 45.4746 125.446 45.3966 125.651 45.3966H126.942V44.6567C126.942 44.1605 127.13 43.7531 127.425 43.4473C127.704 43.1572 128.051 42.9885 128.343 42.8869C128.486 42.8394 128.618 42.7631 128.728 42.663C128.815 42.5791 128.84 42.512 128.846 42.4617L128.994 41.0352C128.315 40.7487 127.707 40.3259 127.214 39.7953C126.721 39.2647 126.352 38.6388 126.135 37.9602H126.134ZM125.909 33.5583H124.619C124.551 33.5583 124.485 33.5843 124.436 33.6306C124.388 33.6768 124.361 33.7396 124.361 33.805V34.2982C124.361 35.265 125.007 36.0868 125.909 36.3916V33.5583ZM130.511 41.4209L130.387 42.6087C130.291 43.5212 129.501 44.0589 128.872 44.2769C128.757 44.3113 128.651 44.3707 128.563 44.4506C128.525 44.49 128.49 44.5423 128.49 44.6577V45.3976H133.652V44.6577C133.652 44.5423 133.618 44.49 133.58 44.4506C133.492 44.3707 133.386 44.3112 133.27 44.2769C132.642 44.0589 131.852 43.5212 131.757 42.6097L131.633 41.4219C131.26 41.4605 130.884 41.4605 130.511 41.4219V41.4209ZM136.233 36.3926V33.5583H137.524C137.592 33.5583 137.658 33.5843 137.706 33.6306C137.755 33.6768 137.782 33.7396 137.782 33.805V34.2982C137.782 34.7574 137.633 35.2053 137.356 35.5802C137.079 35.9551 136.686 36.2386 136.233 36.3916V36.3926ZM127.458 32.6389C127.458 32.6024 127.489 32.5718 127.528 32.5718H134.615C134.653 32.5718 134.685 32.6014 134.685 32.6389V36.5179C134.685 37.4337 134.304 38.3119 133.626 38.9594C132.949 39.607 132.03 39.9708 131.071 39.9708C130.113 39.9708 129.194 39.607 128.516 38.9594C127.839 38.3119 127.458 37.4337 127.458 36.5179V32.6389Z" fill="white"></path><path d="M131.07 33.4595L131.627 35.0955H133.427L131.97 36.1066L132.527 37.7426L131.07 36.7315L129.614 37.7426L130.17 36.1066L128.714 35.0955H130.514L131.07 33.4595Z" fill="white"></path><path d="M247.238 17.0626V11.5256C247.238 11.2834 247.286 11.0435 247.379 10.8197C247.471 10.596 247.607 10.3926 247.779 10.2214C247.95 10.0501 248.153 9.91427 248.377 9.82162C248.601 9.72898 248.841 9.68133 249.083 9.6814H250.716C251.204 9.68241 251.671 9.87692 252.016 10.2223C252.361 10.5676 252.554 11.0356 252.554 11.5234V12.7019C252.554 13.1912 252.36 13.6604 252.014 14.0064C251.668 14.3523 251.199 14.5467 250.709 14.5467H248.4" stroke="white" stroke-width="0.402696" stroke-linecap="round" stroke-linejoin="round"></path><path d="M253.013 9.68018H253.72C253.921 9.68018 254.114 9.75995 254.256 9.90195C254.398 10.0439 254.477 10.2365 254.477 10.4373V14.5743" stroke="white" stroke-width="0.402696" stroke-linecap="round" stroke-linejoin="round"></path><path d="M254.324 9.03948L254.003 8.71778C253.984 8.69882 253.969 8.67629 253.959 8.65149C253.949 8.62669 253.943 8.60011 253.943 8.57326C253.943 8.54641 253.949 8.51982 253.959 8.49502C253.969 8.47022 253.984 8.4477 254.003 8.42874L254.324 8.10758C254.343 8.08857 254.366 8.07348 254.391 8.06319C254.415 8.0529 254.442 8.04761 254.469 8.04761C254.496 8.04761 254.522 8.0529 254.547 8.06319C254.572 8.07348 254.594 8.08857 254.613 8.10758L254.935 8.42874C254.954 8.4477 254.969 8.47022 254.979 8.49502C254.99 8.51982 254.995 8.54641 254.995 8.57326C254.995 8.60011 254.99 8.62669 254.979 8.65149C254.969 8.67629 254.954 8.69882 254.935 8.71778L254.613 9.03948C254.594 9.05849 254.572 9.07358 254.547 9.08387C254.522 9.09416 254.496 9.09945 254.469 9.09945C254.442 9.09945 254.415 9.09416 254.391 9.08387C254.366 9.07358 254.343 9.05849 254.324 9.03948Z" fill="white"></path><path d="M255.839 9.677H256.543C256.904 9.67706 257.251 9.82078 257.507 10.0765L259.152 11.721C259.203 11.7718 259.263 11.8121 259.329 11.8395C259.395 11.867 259.466 11.8812 259.538 11.8812C259.609 11.8812 259.68 11.867 259.747 11.8395C259.813 11.8121 259.873 11.7718 259.923 11.721L261.564 10.0825C261.691 9.95584 261.841 9.85534 262.007 9.78679C262.172 9.71823 262.349 9.68296 262.529 9.68299H263.1" stroke="white" stroke-width="0.402696" stroke-linecap="round" stroke-linejoin="round"></path><path d="M255.839 14.5374H256.543C256.904 14.5373 257.251 14.3936 257.507 14.1378L259.152 12.4939C259.203 12.4432 259.263 12.4029 259.329 12.3754C259.395 12.3479 259.466 12.3337 259.538 12.3337C259.609 12.3337 259.68 12.3479 259.747 12.3754C259.813 12.4029 259.873 12.4432 259.923 12.4939L261.564 14.1318C261.691 14.2585 261.841 14.359 262.007 14.4276C262.172 14.4961 262.349 14.5314 262.529 14.5314H263.1" stroke="white" stroke-width="0.402696" stroke-linecap="round" stroke-linejoin="round"></path><path d="M243.046 15.5879C242.872 15.5884 242.7 15.5545 242.54 15.4881C242.379 15.4216 242.233 15.324 242.111 15.2009L240.762 13.8547C240.714 13.809 240.65 13.7834 240.584 13.7834C240.518 13.7834 240.455 13.809 240.407 13.8547L239.053 15.2085C238.931 15.3316 238.785 15.4292 238.624 15.4957C238.464 15.5621 238.292 15.5961 238.118 15.5955H237.853L239.561 17.3047C239.818 17.5609 240.165 17.7048 240.528 17.7048C240.89 17.7048 241.238 17.5609 241.494 17.3047L243.208 15.5906L243.046 15.5879Z" fill="white"></path><path d="M238.118 10.8153C238.292 10.8149 238.464 10.8489 238.624 10.9153C238.785 10.9817 238.93 11.0793 239.053 11.2023L240.407 12.5566C240.454 12.6035 240.518 12.6298 240.584 12.6298C240.651 12.6298 240.715 12.6035 240.762 12.5566L242.111 11.2072C242.234 11.0842 242.379 10.9866 242.54 10.9202C242.7 10.8538 242.872 10.8198 243.046 10.8202H243.209L241.495 9.10659C241.369 8.97961 241.218 8.87888 241.052 8.81016C240.886 8.74143 240.708 8.70605 240.529 8.70605C240.349 8.70605 240.172 8.74143 240.006 8.81016C239.84 8.87888 239.689 8.97961 239.562 9.10659L237.854 10.8153H238.118Z" fill="white"></path><path d="M244.626 12.2376L243.592 11.2033C243.568 11.2127 243.543 11.2176 243.518 11.218H243.047C242.802 11.219 242.567 11.3168 242.394 11.4902L241.043 12.8369C240.982 12.897 240.911 12.9447 240.832 12.9772C240.754 13.0098 240.67 13.0264 240.585 13.0263C240.413 13.0266 240.248 12.9587 240.126 12.8374L238.772 11.4831C238.599 11.3098 238.364 11.2119 238.119 11.2109H237.54C237.516 11.2105 237.493 11.2057 237.471 11.1968L236.431 12.2365C236.304 12.3633 236.203 12.514 236.134 12.6798C236.066 12.8457 236.03 13.0234 236.03 13.2029C236.03 13.3824 236.066 13.5602 236.134 13.726C236.203 13.8919 236.304 14.0425 236.431 14.1694L237.471 15.2091C237.493 15.2002 237.516 15.1954 237.54 15.1949H238.119C238.364 15.1937 238.599 15.0959 238.772 14.9228L240.126 13.5685C240.25 13.4507 240.414 13.385 240.584 13.385C240.755 13.385 240.919 13.4507 241.043 13.5685L242.392 14.9179C242.565 15.091 242.8 15.1888 243.045 15.19H243.516C243.541 15.1903 243.566 15.1955 243.589 15.2053L244.624 14.171C244.88 13.9146 245.024 13.567 245.024 13.2046C245.024 12.8421 244.88 12.4945 244.624 12.2381" fill="white"></path><path d="M248.644 16.5916C248.559 16.5955 248.473 16.6084 248.391 16.6303V16.9678C248.454 16.9901 248.521 17.0013 248.588 17.001C248.757 17.001 248.837 16.9438 248.837 16.7947C248.837 16.6548 248.772 16.5916 248.644 16.5916ZM248.333 17.2182V16.5513H248.38L248.385 16.5802C248.471 16.5571 248.56 16.5429 248.649 16.5377C248.711 16.5335 248.772 16.5512 248.822 16.5878C248.85 16.6144 248.871 16.6468 248.884 16.6826C248.897 16.7184 248.902 16.7567 248.898 16.7947C248.902 16.837 248.893 16.8795 248.874 16.9174C248.855 16.9553 248.826 16.9872 248.79 17.0097C248.728 17.0398 248.661 17.0547 248.593 17.0532C248.524 17.0528 248.456 17.0424 248.39 17.0222V17.2182H248.333Z" fill="white"></path><path d="M249.323 16.5901C249.154 16.5901 249.079 16.6445 249.079 16.792C249.079 16.9396 249.153 17.0011 249.323 17.0011C249.493 17.0011 249.567 16.9466 249.567 16.7997C249.567 16.6527 249.492 16.5901 249.323 16.5901ZM249.541 17.0011C249.476 17.0414 249.399 17.0604 249.323 17.0555C249.247 17.0601 249.171 17.0411 249.105 17.0011C249.075 16.9768 249.051 16.9454 249.036 16.9095C249.02 16.8737 249.014 16.8346 249.018 16.7959C249.015 16.757 249.021 16.718 249.036 16.6821C249.051 16.6462 249.075 16.6146 249.105 16.5901C249.17 16.5498 249.247 16.5308 249.323 16.5357C249.399 16.5309 249.475 16.5499 249.541 16.5901C249.571 16.6144 249.595 16.6458 249.61 16.6815C249.625 16.7172 249.631 16.7561 249.628 16.7948C249.632 16.8337 249.626 16.8729 249.61 16.9089C249.595 16.9449 249.571 16.9766 249.541 17.0011Z" fill="white"></path><path d="M250.341 17.0397L250.153 16.6347H250.149L249.964 17.0397H249.915L249.714 16.5498H249.777L249.944 16.9597H249.948L250.13 16.5498H250.184L250.371 16.9597H250.375L250.538 16.5498H250.599L250.398 17.0397H250.341Z" fill="white"></path><path d="M250.959 16.5891C250.802 16.5891 250.749 16.6588 250.741 16.7595H251.18C251.175 16.6479 251.118 16.5891 250.962 16.5891H250.959ZM250.962 17.0534C250.89 17.0611 250.818 17.0417 250.759 16.999C250.731 16.9732 250.709 16.9414 250.695 16.906C250.681 16.8705 250.675 16.8324 250.677 16.7943C250.675 16.7548 250.682 16.7153 250.698 16.6791C250.714 16.6428 250.738 16.6107 250.768 16.5853C250.825 16.5498 250.892 16.5327 250.959 16.5363C251.027 16.5321 251.095 16.5486 251.154 16.5837C251.225 16.631 251.238 16.7143 251.238 16.809H250.737C250.737 16.9092 250.772 16.9984 250.961 16.9984C251.046 16.9964 251.131 16.9869 251.214 16.9701V17.0213C251.129 17.039 251.043 17.0492 250.957 17.0518" fill="white"></path><path d="M251.402 17.0396V16.5497H251.449L251.454 16.5786C251.532 16.5529 251.613 16.5386 251.696 16.5361H251.703V16.5906H251.689C251.611 16.5923 251.533 16.6053 251.459 16.6292V17.0386L251.402 17.0396Z" fill="white"></path><path d="M252.034 16.5889C251.878 16.5889 251.824 16.6586 251.817 16.7593H252.256C252.251 16.6477 252.194 16.5889 252.038 16.5889H252.034ZM252.038 17.0532C251.966 17.0607 251.894 17.0414 251.835 16.9988C251.808 16.9727 251.787 16.941 251.774 16.9059C251.761 16.8707 251.756 16.8331 251.759 16.7958C251.757 16.7563 251.764 16.7168 251.78 16.6805C251.795 16.6442 251.819 16.6121 251.85 16.5867C251.907 16.5512 251.973 16.5341 252.04 16.5377C252.109 16.5336 252.176 16.5501 252.235 16.5851C252.306 16.6325 252.32 16.7157 252.32 16.8105H251.819C251.819 16.9106 251.854 16.9999 252.043 16.9999C252.128 16.9978 252.212 16.9884 252.296 16.9716V17.0228C252.211 17.0404 252.125 17.0506 252.038 17.0532Z" fill="white"></path><path d="M252.938 16.6228C252.875 16.6007 252.808 16.5897 252.741 16.5902C252.572 16.5902 252.492 16.6473 252.492 16.7959C252.492 16.9445 252.557 16.999 252.685 16.999C252.771 16.9949 252.856 16.9824 252.938 16.9614V16.6228ZM252.949 17.0398L252.944 17.0104C252.858 17.0336 252.77 17.048 252.68 17.0534C252.619 17.0581 252.557 17.0401 252.507 17.0028C252.48 16.9763 252.459 16.9439 252.445 16.9081C252.432 16.8723 252.427 16.834 252.431 16.7959C252.427 16.7537 252.436 16.7114 252.455 16.6737C252.474 16.636 252.503 16.6042 252.539 16.582C252.601 16.5512 252.669 16.536 252.737 16.5379C252.806 16.5387 252.873 16.5492 252.939 16.5689V16.3452H252.996V17.0398H252.949Z" fill="white"></path><path d="M253.834 16.5918C253.749 16.5956 253.664 16.6086 253.581 16.6304V16.9668C253.644 16.99 253.711 17.0016 253.778 17.0011C253.948 17.0011 254.028 16.944 254.028 16.7948C254.028 16.6549 253.962 16.5918 253.834 16.5918ZM253.98 17.0099C253.919 17.0399 253.852 17.0549 253.784 17.0534C253.71 17.0526 253.636 17.0401 253.566 17.0164V17.0398H253.527V16.3452H253.581V16.5766C253.666 16.5549 253.753 16.5415 253.84 16.5363C253.902 16.532 253.963 16.5498 254.013 16.5864C254.04 16.613 254.061 16.6453 254.075 16.6811C254.088 16.7169 254.093 16.7552 254.089 16.7932C254.092 16.8356 254.084 16.878 254.065 16.9159C254.046 16.9538 254.016 16.9858 253.98 17.0082" fill="white"></path><path d="M254.161 17.2296V17.1751C254.189 17.1751 254.215 17.18 254.233 17.18C254.267 17.1827 254.3 17.1743 254.327 17.156C254.355 17.1378 254.376 17.1108 254.386 17.0793L254.405 17.0407L254.15 16.5508H254.215L254.433 16.9721H254.437L254.645 16.5508H254.71L254.438 17.0989C254.387 17.1985 254.333 17.2312 254.233 17.2312C254.209 17.2323 254.185 17.2318 254.161 17.2296Z" fill="white"></path><path d="M255.498 16.761H255.308V16.9324H255.498C255.629 16.9324 255.679 16.9177 255.679 16.8459C255.679 16.774 255.611 16.761 255.498 16.761ZM255.463 16.4833H255.308V16.6575H255.464C255.593 16.6575 255.644 16.6423 255.644 16.5693C255.644 16.4964 255.579 16.4833 255.463 16.4833ZM255.757 16.9934C255.687 17.0375 255.603 17.0397 255.45 17.0397H255.16V16.3772H255.442C255.575 16.3772 255.656 16.3772 255.724 16.4197C255.746 16.4331 255.765 16.4525 255.777 16.4758C255.789 16.4991 255.794 16.5253 255.792 16.5514C255.794 16.5841 255.784 16.6164 255.765 16.643C255.746 16.6697 255.719 16.6892 255.687 16.6984V16.7022C255.772 16.7212 255.827 16.7648 255.827 16.8589C255.829 16.8857 255.824 16.9125 255.811 16.9362C255.799 16.96 255.78 16.9798 255.757 16.9934Z" fill="white"></path><path d="M256.406 16.8345C256.351 16.8296 256.291 16.8269 256.23 16.8269C256.13 16.8269 256.096 16.847 256.096 16.8928C256.096 16.9385 256.124 16.9581 256.201 16.9581C256.27 16.9557 256.339 16.946 256.406 16.9292V16.8345ZM256.435 17.0397L256.431 17.0103C256.345 17.0349 256.256 17.0493 256.166 17.0533C256.114 17.0568 256.063 17.0442 256.018 17.0174C256 17.0037 255.986 16.9858 255.976 16.9652C255.967 16.9446 255.963 16.9219 255.964 16.8993C255.963 16.8715 255.97 16.844 255.985 16.8204C255.999 16.7968 256.021 16.7782 256.046 16.767C256.105 16.7451 256.167 16.7358 256.23 16.7398C256.281 16.7398 256.349 16.7425 256.406 16.7463V16.7398C256.406 16.6636 256.356 16.6386 256.219 16.6386C256.164 16.6386 256.101 16.6413 256.039 16.6473V16.5482C256.108 16.5428 256.185 16.5389 256.249 16.5389C256.327 16.532 256.406 16.5477 256.476 16.5841C256.531 16.6239 256.543 16.6788 256.543 16.7518V17.0408L256.435 17.0397Z" fill="white"></path><path d="M257.18 17.0396V16.7675C257.18 16.6787 257.134 16.6466 257.053 16.6466C256.986 16.6495 256.919 16.6599 256.854 16.6776V17.0374H256.719V16.5475H256.828L256.833 16.578C256.918 16.5534 257.006 16.5386 257.094 16.5339C257.154 16.5293 257.214 16.5471 257.262 16.584C257.281 16.6039 257.297 16.6279 257.306 16.6544C257.315 16.6808 257.319 16.709 257.316 16.737V17.0358L257.18 17.0396Z" fill="white"></path><path d="M257.699 17.0532C257.634 17.0582 257.57 17.0399 257.517 17.0015C257.49 16.9752 257.468 16.9429 257.455 16.907C257.441 16.8712 257.436 16.8327 257.44 16.7947C257.438 16.7543 257.445 16.7139 257.463 16.6774C257.48 16.6409 257.507 16.6095 257.54 16.5862C257.605 16.5496 257.68 16.5327 257.754 16.5377C257.809 16.5377 257.866 16.5415 257.926 16.547V16.6515C257.877 16.6471 257.817 16.6428 257.771 16.6428C257.641 16.6428 257.58 16.6836 257.58 16.7957C257.58 16.9079 257.626 16.9465 257.732 16.9465C257.801 16.9444 257.87 16.936 257.937 16.9215V17.0222C257.859 17.0401 257.779 17.0505 257.699 17.0532Z" fill="white"></path><path d="M258.341 16.64C258.211 16.64 258.154 16.6808 258.154 16.7919C258.154 16.9029 258.209 16.9503 258.341 16.9503C258.473 16.9503 258.526 16.9106 258.526 16.7995C258.526 16.6885 258.471 16.64 258.341 16.64ZM258.575 17.0015C258.504 17.0417 258.422 17.0597 258.341 17.0532C258.259 17.0595 258.177 17.0415 258.106 17.0015C258.074 16.9781 258.049 16.9468 258.033 16.9108C258.016 16.8747 258.01 16.835 258.014 16.7957C258.01 16.7562 258.016 16.7164 258.033 16.6802C258.049 16.6439 258.074 16.6125 258.106 16.5889C258.177 16.549 258.259 16.5312 258.341 16.5377C258.422 16.5314 258.504 16.5492 258.575 16.5889C258.607 16.6124 258.632 16.6437 258.648 16.6797C258.664 16.7158 258.67 16.7554 258.666 16.7946C258.67 16.834 258.663 16.8737 258.648 16.9099C258.632 16.9461 258.607 16.9777 258.575 17.0015Z" fill="white"></path><path d="M259.453 17.0533C259.368 17.0587 259.284 17.0342 259.215 16.9842C259.136 16.9189 259.112 16.8171 259.112 16.7077C259.109 16.6533 259.12 16.599 259.143 16.5499C259.167 16.5007 259.202 16.4582 259.246 16.4262C259.332 16.379 259.429 16.3572 259.527 16.3637C259.6 16.3637 259.675 16.3685 259.757 16.3751V16.4943C259.687 16.4883 259.6 16.4834 259.533 16.4834C259.344 16.4834 259.264 16.5553 259.264 16.7077C259.264 16.8601 259.338 16.933 259.477 16.933C259.576 16.9298 259.675 16.9165 259.772 16.8933V17.012C259.667 17.0365 259.561 17.0505 259.453 17.0539" fill="white"></path><path d="M260.173 16.6249C260.059 16.6249 260.016 16.6652 260.009 16.7397H260.336C260.332 16.6603 260.286 16.6249 260.173 16.6249ZM260.153 17.0533C260.079 17.0599 260.006 17.0406 259.946 16.9989C259.918 16.973 259.897 16.9412 259.883 16.9058C259.869 16.8704 259.864 16.8325 259.867 16.7947C259.865 16.7556 259.872 16.7166 259.888 16.6808C259.904 16.6451 259.928 16.6136 259.959 16.589C260.023 16.5503 260.098 16.5324 260.173 16.5378C260.247 16.5332 260.32 16.5502 260.384 16.5868C260.463 16.6412 260.469 16.7272 260.47 16.8279H260.006C260.009 16.9025 260.049 16.9504 260.186 16.9504C260.274 16.9485 260.361 16.9401 260.447 16.9254V17.0212C260.35 17.0396 260.251 17.0503 260.153 17.0533Z" fill="white"></path><path d="M261.077 17.0396V16.7675C261.077 16.6787 261.032 16.6466 260.951 16.6466C260.883 16.6495 260.816 16.6599 260.751 16.6776V17.0374H260.615V16.5475H260.726L260.731 16.578C260.816 16.5533 260.904 16.5385 260.992 16.5339C261.052 16.5293 261.112 16.5471 261.16 16.584C261.179 16.6039 261.195 16.6279 261.204 16.6544C261.213 16.6808 261.217 16.709 261.214 16.737V17.0358L261.077 17.0396Z" fill="white"></path><path d="M261.601 17.0533C261.57 17.0562 261.54 17.0513 261.512 17.0391C261.484 17.0269 261.46 17.0078 261.442 16.9836C261.415 16.9391 261.403 16.8874 261.406 16.8355V16.6526H261.308V16.5514H261.406L261.421 16.4033H261.542V16.5514H261.734V16.6526H261.542V16.8094C261.54 16.841 261.544 16.8727 261.555 16.9025C261.564 16.9183 261.577 16.9311 261.592 16.9392C261.608 16.9473 261.626 16.9503 261.644 16.9477C261.677 16.9471 261.709 16.9438 261.741 16.9379V17.0358C261.695 17.046 261.648 17.0519 261.601 17.0533Z" fill="white"></path><path d="M261.867 17.0396V16.5497H261.976L261.981 16.5802C262.059 16.5539 262.14 16.5391 262.223 16.5361H262.24V16.6526C262.224 16.6526 262.206 16.6526 262.193 16.6526C262.128 16.6528 262.064 16.6613 262.001 16.6777V17.0386L261.867 17.0396Z" fill="white"></path><path d="M262.738 16.8345C262.681 16.8296 262.623 16.8269 262.562 16.8269C262.462 16.8269 262.427 16.8471 262.427 16.8928C262.427 16.9385 262.457 16.9581 262.533 16.9581C262.602 16.9556 262.671 16.9459 262.738 16.9292V16.8345ZM262.767 17.0397L262.762 17.012C262.675 17.0365 262.586 17.0509 262.496 17.055C262.445 17.0584 262.393 17.0458 262.348 17.0191C262.33 17.0053 262.316 16.9874 262.307 16.9668C262.297 16.9462 262.293 16.9236 262.294 16.9009C262.293 16.8724 262.3 16.8441 262.316 16.8201C262.331 16.7961 262.354 16.7776 262.381 16.767C262.439 16.7456 262.501 16.7367 262.563 16.7409C262.614 16.7409 262.683 16.7436 262.74 16.7474V16.7398C262.74 16.6636 262.69 16.6386 262.553 16.6386C262.498 16.6386 262.434 16.6413 262.372 16.6473V16.5482C262.441 16.5428 262.519 16.539 262.582 16.539C262.661 16.532 262.74 16.5477 262.809 16.5841C262.864 16.6239 262.876 16.6788 262.876 16.7518V17.0408L262.767 17.0397Z" fill="white"></path><path d="M263.05 16.3452H263.186V17.0398H263.05V16.3452Z" fill="white"></path><path fill-rule="evenodd" clip-rule="evenodd" d="M209.896 16.9087V13.6672H211.569C212.255 13.6672 212.833 13.4375 213.305 12.9844L213.418 12.8696C214.28 11.9316 214.223 10.4703 213.305 9.60249C212.846 9.14306 212.217 8.8942 211.569 8.90696H208.883V16.9087H209.896ZM209.896 12.6846V9.88968H211.594C211.959 9.88968 212.305 10.0301 212.563 10.2853C213.111 10.8213 213.123 11.7146 212.595 12.2698C212.337 12.5442 211.972 12.6973 211.594 12.6846H209.896ZM218.142 11.8614C217.708 11.4594 217.116 11.2552 216.368 11.2552C215.406 11.2552 214.682 11.6125 214.204 12.3208L215.097 12.8887C215.424 12.4038 215.871 12.1613 216.437 12.1613C216.796 12.1613 217.142 12.2953 217.412 12.5378C217.676 12.7675 217.827 13.0993 217.827 13.4503V13.6863C217.437 13.4694 216.947 13.3545 216.343 13.3545C215.638 13.3545 215.072 13.5204 214.651 13.8586C214.229 14.1968 214.016 14.6435 214.016 15.2114C214.003 15.7283 214.223 16.2196 214.613 16.5514C215.009 16.9088 215.513 17.0874 216.104 17.0874C216.802 17.0874 217.355 16.7747 217.777 16.1494H217.821V16.9088H218.789V13.5332C218.789 12.8249 218.576 12.2634 218.142 11.8614ZM215.393 15.9006C215.186 15.7475 215.06 15.4986 215.06 15.2306C215.06 14.9307 215.198 14.6819 215.469 14.4841C215.745 14.2862 216.091 14.1841 216.5 14.1841C217.067 14.1778 217.507 14.3054 217.821 14.5606C217.821 14.9945 217.652 15.371 217.318 15.6901C217.016 15.9964 216.607 16.1686 216.18 16.1686C215.896 16.175 215.62 16.0793 215.393 15.9006ZM220.966 19.3144L224.349 11.4339H223.249L221.683 15.3645H221.664L220.06 11.4339H218.959L221.179 16.5578L219.922 19.3144H220.966Z" fill="white"></path><path d="M206.4 12.9653C206.4 12.6526 206.375 12.34 206.325 12.0337H202.054V13.8012H204.501C204.4 14.3691 204.073 14.8796 203.595 15.1987V16.3472H205.054C205.909 15.5496 206.4 14.3691 206.4 12.9653Z" fill="white"></path><path d="M202.054 17.4574C203.274 17.4574 204.306 17.049 205.054 16.3471L203.595 15.1985C203.186 15.4793 202.664 15.6388 202.054 15.6388C200.872 15.6388 199.872 14.8284 199.513 13.7437H198.01V14.9305C198.777 16.4811 200.343 17.4574 202.054 17.4574Z" fill="white"></path><path d="M199.513 13.7436C199.325 13.1757 199.325 12.5568 199.513 11.9825V10.802H198.01C197.362 12.0973 197.362 13.6288 198.01 14.9241L199.513 13.7436Z" fill="white"></path><path d="M202.054 10.0874C202.702 10.0747 203.325 10.3235 203.79 10.7766L205.086 9.46208C204.262 8.6836 203.18 8.25607 202.054 8.26883C200.343 8.26883 198.777 9.25151 198.01 10.8021L199.513 11.989C199.872 10.8978 200.872 10.0874 202.054 10.0874Z" fill="white"></path><path fill-rule="evenodd" clip-rule="evenodd" d="M165.395 16.3538H163.726C163.612 16.3538 163.514 16.4368 163.497 16.5495L162.821 20.8298C162.808 20.9143 162.873 20.9905 162.959 20.9905H163.756C163.87 20.9905 163.967 20.9074 163.985 20.7945L164.167 19.64C164.185 19.527 164.282 19.4441 164.396 19.4441H164.925C166.024 19.4441 166.659 18.912 166.825 17.8576C166.899 17.3963 166.828 17.0338 166.612 16.7799C166.374 16.5013 165.954 16.3538 165.395 16.3538ZM165.588 17.9171C165.496 18.5161 165.039 18.5161 164.596 18.5161H164.344L164.521 17.3974C164.531 17.3299 164.59 17.2801 164.658 17.2801H164.774C165.075 17.2801 165.36 17.2801 165.507 17.4519C165.594 17.5544 165.621 17.7067 165.588 17.9171ZM170.385 17.8979H169.585C169.517 17.8979 169.458 17.9477 169.448 18.0154L169.412 18.2389L169.357 18.1579C169.184 17.9067 168.798 17.8228 168.413 17.8228C167.529 17.8228 166.775 18.4918 166.628 19.4303C166.551 19.8984 166.66 20.346 166.926 20.6582C167.169 20.9452 167.518 21.0648 167.932 21.0648C168.644 21.0648 169.039 20.6071 169.039 20.6071L169.003 20.8293C168.99 20.9142 169.055 20.9903 169.14 20.9903H169.86C169.975 20.9903 170.071 20.9073 170.089 20.7944L170.522 18.0585C170.535 17.9744 170.47 17.8979 170.385 17.8979ZM169.27 19.4537C169.193 19.9103 168.831 20.2169 168.369 20.2169C168.136 20.2169 167.951 20.1424 167.832 20.0014C167.714 19.8613 167.669 19.6618 167.706 19.4398C167.778 18.987 168.147 18.6705 168.602 18.6705C168.829 18.6705 169.014 18.7458 169.135 18.8881C169.257 19.0319 169.305 19.2325 169.27 19.4537ZM173.839 17.8978H174.642C174.754 17.8978 174.82 18.0239 174.756 18.1162L172.084 21.9726C172.041 22.035 171.97 22.0722 171.894 22.0722H171.091C170.979 22.0722 170.913 21.945 170.978 21.8525L171.81 20.6783L170.925 18.0818C170.894 17.9915 170.961 17.8978 171.057 17.8978H171.846C171.949 17.8978 172.039 17.9651 172.069 18.0633L172.539 19.6314L173.647 17.9996C173.69 17.9358 173.762 17.8978 173.839 17.8978Z" fill="white"></path><path fill-rule="evenodd" clip-rule="evenodd" d="M182.548 20.8298L183.233 16.4712C183.243 16.4036 183.302 16.3537 183.37 16.3535H184.141C184.226 16.3535 184.292 16.4299 184.278 16.5144L183.603 20.7945C183.585 20.9074 183.488 20.9904 183.374 20.9904H182.685C182.6 20.9904 182.534 20.9143 182.548 20.8298ZM177.301 16.3537H175.632C175.518 16.3537 175.421 16.4368 175.403 16.5495L174.728 20.8298C174.714 20.9143 174.78 20.9904 174.865 20.9904H175.722C175.801 20.9904 175.869 20.9324 175.882 20.8533L176.073 19.64C176.091 19.527 176.188 19.444 176.302 19.444H176.83C177.93 19.444 178.565 18.9119 178.731 17.8576C178.805 17.3963 178.733 17.0338 178.517 16.7799C178.28 16.5013 177.86 16.3537 177.301 16.3537ZM177.494 17.9171C177.403 18.5161 176.945 18.5161 176.502 18.5161H176.251L176.428 17.3974C176.438 17.3299 176.496 17.28 176.565 17.28H176.68C176.981 17.28 177.266 17.28 177.413 17.4518C177.501 17.5544 177.527 17.7067 177.494 17.9171ZM182.29 17.8979H181.492C181.423 17.8979 181.365 17.9477 181.354 18.0153L181.319 18.2389L181.263 18.1579C181.09 17.9067 180.704 17.8228 180.319 17.8228C179.436 17.8228 178.682 18.4918 178.535 19.4303C178.459 19.8983 178.567 20.346 178.832 20.6581C179.076 20.9452 179.424 21.0648 179.839 21.0648C180.551 21.0648 180.945 20.6071 180.945 20.6071L180.91 20.8293C180.896 20.9142 180.962 20.9903 181.047 20.9903H181.767C181.881 20.9903 181.978 20.9073 181.996 20.7944L182.428 18.0585C182.442 17.9743 182.376 17.8979 182.29 17.8979ZM181.176 19.4536C181.1 19.9103 180.737 20.2169 180.274 20.2169C180.043 20.2169 179.857 20.1424 179.738 20.0013C179.62 19.8613 179.575 19.6618 179.612 19.4398C179.685 18.9869 180.053 18.6705 180.508 18.6705C180.735 18.6705 180.919 18.7458 181.041 18.8881C181.163 19.0319 181.212 19.2325 181.176 19.4536Z" fill="white"></path><path d="M171.572 14.8227L171.778 13.5193L171.32 13.5087H169.138L170.655 3.89031C170.659 3.86127 170.675 3.8342 170.697 3.81498C170.719 3.79575 170.748 3.78516 170.778 3.78516H174.458C175.68 3.78516 176.523 4.03942 176.964 4.54126C177.17 4.7767 177.301 5.02271 177.365 5.29345C177.432 5.57754 177.433 5.91695 177.368 6.33091L177.363 6.36112V6.62636L177.57 6.7433C177.743 6.8355 177.881 6.94105 177.987 7.06191C178.164 7.2632 178.278 7.51903 178.326 7.82233C178.376 8.13428 178.36 8.50546 178.278 8.9257C178.184 9.40912 178.032 9.83014 177.826 10.1746C177.637 10.4921 177.396 10.7553 177.11 10.9594C176.837 11.1532 176.512 11.3004 176.146 11.3946C175.79 11.4871 175.385 11.5339 174.94 11.5339H174.654C174.449 11.5339 174.25 11.6076 174.094 11.7399C173.937 11.8749 173.834 12.0592 173.802 12.2609L173.78 12.3783L173.418 14.6756L173.401 14.7599C173.397 14.7867 173.389 14.8 173.379 14.8091C173.369 14.8172 173.355 14.8227 173.341 14.8227H171.572Z" fill="white"></path><path d="M177.765 6.39185C177.754 6.46208 177.741 6.53388 177.727 6.60765C177.242 9.09965 175.581 9.96053 173.461 9.96053H172.381C172.121 9.96053 171.903 10.1489 171.862 10.4047L171.309 13.911L171.153 14.9049C171.127 15.0728 171.256 15.2243 171.426 15.2243H173.341C173.568 15.2243 173.76 15.0595 173.796 14.8359L173.815 14.7385L174.175 12.4501L174.199 12.3246C174.234 12.1002 174.427 11.9354 174.654 11.9354H174.94C176.796 11.9354 178.248 11.182 178.673 9.00195C178.85 8.09123 178.758 7.33081 178.289 6.79599C178.147 6.63472 177.971 6.50092 177.765 6.39185Z" fill="#CECECE"></path><path d="M177.257 6.18935C177.183 6.16777 177.106 6.14815 177.028 6.13049C176.949 6.11323 176.868 6.09793 176.785 6.08459C176.494 6.0375 176.175 6.01514 175.833 6.01514H172.948C172.877 6.01514 172.81 6.03122 172.749 6.06026C172.616 6.12421 172.517 6.25017 172.494 6.40437L171.88 10.2913L171.862 10.4047C171.903 10.1488 172.121 9.9605 172.38 9.9605H173.46C175.581 9.9605 177.242 9.09923 177.727 6.60763C177.742 6.53386 177.754 6.46206 177.765 6.39182C177.642 6.32669 177.509 6.27097 177.366 6.22348C177.33 6.21171 177.294 6.20034 177.257 6.18935Z" fill="white"></path><path d="M172.494 6.40447C172.518 6.25026 172.616 6.12431 172.749 6.06074C172.81 6.0317 172.877 6.01561 172.948 6.01561H175.833C176.175 6.01561 176.494 6.03798 176.785 6.08507C176.868 6.09841 176.949 6.11371 177.028 6.13097C177.106 6.14863 177.183 6.16825 177.257 6.18983C177.294 6.20082 177.33 6.21219 177.366 6.22358C177.509 6.27105 177.642 6.32716 177.765 6.39191C177.91 5.47099 177.764 4.84397 177.266 4.2762C176.717 3.65115 175.726 3.38354 174.459 3.38354H170.778C170.519 3.38354 170.298 3.57188 170.258 3.8281L168.725 13.5454C168.695 13.7376 168.843 13.9111 169.037 13.9111H171.309L171.88 10.2914L172.494 6.40447Z" fill="white"></path><path fill-rule="evenodd" clip-rule="evenodd" d="M94.072 18.4097C92.7934 19.513 91.1349 20.1791 89.3226 20.1791C85.2788 20.1791 82.0006 16.8628 82.0006 12.772C82.0006 8.68124 85.2788 5.36499 89.3226 5.36499C91.135 5.36499 92.7935 6.03109 94.0721 7.13449C95.3507 6.03116 97.0092 5.3651 98.8215 5.3651C102.865 5.3651 106.144 8.68135 106.144 12.7721C106.144 16.8629 102.865 20.1792 98.8215 20.1792C97.0092 20.1792 95.3506 19.5131 94.072 18.4097Z" fill="white"></path><path fill-rule="evenodd" clip-rule="evenodd" d="M94.0721 18.4096C95.6464 17.051 96.6447 15.0295 96.6447 12.772C96.6447 10.5146 95.6464 8.49302 94.0721 7.13443C95.3506 6.03107 97.0092 5.36499 98.8215 5.36499C102.865 5.36499 106.144 8.68124 106.144 12.772C106.144 16.8628 102.865 20.1791 98.8215 20.1791C97.0092 20.1791 95.3506 19.513 94.0721 18.4096Z" fill="#F4F4F4"></path><path fill-rule="evenodd" clip-rule="evenodd" d="M94.0721 18.4097C95.6464 17.0511 96.6447 15.0295 96.6447 12.7721C96.6447 10.5147 95.6464 8.49311 94.0721 7.13452C92.4978 8.49311 91.4995 10.5147 91.4995 12.7721C91.4995 15.0295 92.4978 17.0511 94.0721 18.4097Z" fill="#B7B7B7"></path><path fill-rule="evenodd" clip-rule="evenodd" d="M122.466 9.12061L118.952 16.8965H123.159L123.68 15.6567H124.872L125.394 16.8965H130.024V15.9503L130.436 16.8965H132.831L133.244 15.9303V16.8965H142.873L144.044 15.6889L145.141 16.8965L150.087 16.9065L146.562 13.0303L150.087 9.12061H145.217L144.078 10.3059L143.016 9.12061H132.54L131.641 11.1276L130.72 9.12061H126.522V10.0347L126.055 9.12061H122.466ZM136.846 10.2249H142.375L144.067 12.0518L145.812 10.2249H147.504L144.934 13.0292L147.504 15.8013H145.736L144.044 13.9532L142.29 15.8013H136.846V10.2249ZM138.211 12.3988V11.3802V11.3792H141.661L143.167 13.0082L141.595 14.6461H138.211V13.5341H141.228V12.3988H138.211ZM123.28 10.2249H125.33L127.661 15.4978V10.2249H129.907L131.707 14.0055L133.366 10.2249H135.601V15.8046H134.241L134.23 11.4324L132.248 15.8046H131.031L129.037 11.4324V15.8046H126.24L125.709 14.5537H122.844L122.315 15.8035H120.816L123.28 10.2249ZM123.333 13.3972L124.277 11.1689L125.22 13.3972H123.333Z" fill="white"></path><path fill-rule="evenodd" clip-rule="evenodd" d="M50.6693 17.4454H48.3941L46.688 10.9366C46.6071 10.6372 46.4351 10.3725 46.1822 10.2477C45.551 9.93424 44.8555 9.68473 44.0967 9.55889V9.30831H47.7618C48.2677 9.30831 48.647 9.68473 48.7103 10.1219L49.5955 14.8169L51.8695 9.30831H54.0814L50.6693 17.4454ZM55.346 17.4454H53.1973L54.9666 9.30831H57.1153L55.346 17.4454ZM59.8952 11.5625C59.9584 11.1242 60.3378 10.8736 60.7804 10.8736C61.4759 10.8107 62.2336 10.9366 62.8659 11.249L63.2453 9.49703C62.613 9.24644 61.9174 9.12061 61.2863 9.12061C59.2008 9.12061 57.6833 10.2477 57.6833 11.812C57.6833 13.002 58.7582 13.6269 59.5169 14.0033C60.3378 14.3786 60.654 14.6292 60.5907 15.0046C60.5907 15.5676 59.9584 15.8182 59.3273 15.8182C58.5685 15.8182 57.8098 15.6305 57.1153 15.317L56.736 17.07C57.4947 17.3825 58.3156 17.5083 59.0743 17.5083C61.4127 17.5701 62.8659 16.4441 62.8659 14.754C62.8659 12.6256 59.8952 12.5008 59.8952 11.5625ZM70.3857 17.4454L68.6797 9.30831H66.8471C66.4677 9.30831 66.0884 9.55889 65.9619 9.93424L62.8027 17.4454H65.0146L65.4561 16.2565H68.1738L68.4267 17.4454H70.3857ZM67.1633 11.4995L67.7944 14.5663H66.0251L67.1633 11.4995Z" fill="white"></path><g clip-path="url(#clip0_1_535)"><path d="M5.63164 5.36523H5.92977V13.2813H5.63164V5.36523ZM6.22791 5.36523H6.52605V13.2813H6.22791V5.36523ZM8.01806 5.36523H8.3162V13.2813H8.01806V5.36523ZM13.8213 5.36523H14.1194V13.2813H13.8213V5.36523ZM15.7614 5.36523H16.0595V13.2813H15.7614V5.36523ZM17.6426 5.36523H17.9408V13.2813H17.6426V5.36523ZM18.1275 5.36523H18.4256V13.2813H18.1279L18.1275 5.36523ZM18.613 5.36523H18.9111V13.2813H18.613V5.36523ZM19.1586 5.36523H19.4568V13.2813H19.1587L19.1586 5.36523ZM19.7042 5.36523H20.0023V13.2813H19.7042V5.36523ZM21.2209 5.36523H21.519V13.2813H21.2205L21.2209 5.36523ZM24.9815 5.36523H25.2796V13.2813H24.9815V5.36523ZM28.9041 5.36523H29.2021V13.2813H28.904L28.9041 5.36523ZM29.977 5.36523H30.2751V13.2813H29.977V5.36523ZM30.7527 5.36523H31.0508V13.2813H30.7527V5.36523ZM31.23 5.36523H31.5281V13.2813H31.23V5.36523ZM9.98693 5.36523H10.2851V13.2813H9.98693V5.36523ZM7.00362 5.36523H7.54049V13.2813H7.00362V5.36523ZM10.5465 5.36523H11.0832V13.2813H10.5465V5.36523ZM13.0341 5.36523H13.5709V13.2813H13.0341V5.36523ZM14.3077 5.36523H14.8445V13.2813H14.3077V5.36523ZM16.3092 5.36523H16.846V13.2813H16.3092V5.36523ZM22.0156 5.36523H22.8505V13.2813H22.0156V5.36523ZM23.1062 5.36523H23.762V13.2813H23.1055L23.1062 5.36523ZM24.257 5.36523H24.7938V13.2813H24.257V5.36523ZM25.7787 5.36523H26.6737V13.2813H25.7787V5.36523ZM27.5314 5.36523H28.4265V13.2813H27.5314V5.36523ZM8.61464 5.36523H9.68818V13.2813H8.61464V5.36523ZM11.3972 5.36523H12.2321V13.2813H11.3972V5.36523Z" fill="white"></path><path d="M6.01836 20.3099V15.779H7.71858C8.0027 15.768 8.2861 15.8147 8.55165 15.9163C8.7552 16.0034 8.92678 16.1513 9.0428 16.3398C9.15779 16.5182 9.2195 16.7257 9.2207 16.9379C9.22071 17.1315 9.16609 17.3211 9.06311 17.4849C8.9471 17.6654 8.78194 17.809 8.58707 17.8988C8.83715 17.9631 9.05936 18.1074 9.21989 18.3096C9.36843 18.5071 9.44622 18.7488 9.44076 18.9958C9.44252 19.2009 9.39657 19.4035 9.30654 19.5878C9.23043 19.753 9.1161 19.8977 8.97299 20.0099C8.82403 20.1168 8.65536 20.1931 8.47674 20.2345C8.23724 20.2894 7.99192 20.3149 7.74624 20.3104L6.01836 20.3099ZM6.61851 17.683H7.59835C7.78971 17.6905 7.98122 17.6728 8.16799 17.6305C8.30468 17.5958 8.42588 17.5165 8.51236 17.4051C8.59287 17.2893 8.63353 17.1504 8.6282 17.0095C8.63096 16.8696 8.59341 16.7318 8.52001 16.6126C8.44999 16.4995 8.34112 16.4158 8.21381 16.3772C7.98791 16.3252 7.75604 16.3039 7.52445 16.3138H6.61872L6.61851 17.683ZM6.61851 19.7754H7.74645C7.88289 19.779 8.0194 19.7718 8.15472 19.754C8.27711 19.7341 8.3946 19.6911 8.50093 19.6273C8.59809 19.5645 8.67693 19.4772 8.72945 19.3742C8.79079 19.2571 8.82171 19.1265 8.81938 18.9944C8.82359 18.8367 8.77822 18.6817 8.68965 18.5512C8.60221 18.426 8.47543 18.3335 8.32946 18.2886C8.1136 18.2302 7.8902 18.2046 7.66673 18.2126H6.61851V19.7754ZM10.317 18.1036C10.279 17.458 10.4965 16.8233 10.9226 16.3367C11.1234 16.1258 11.3666 15.9599 11.6362 15.8499C11.9058 15.7399 12.1957 15.6883 12.4867 15.6985C12.8841 15.6931 13.2754 15.7969 13.6178 15.9986C13.9507 16.1954 14.2179 16.4863 14.3857 16.8347C14.5665 17.2142 14.6569 17.6305 14.6496 18.0508C14.6572 18.4781 14.5622 18.9009 14.3724 19.2838C14.2001 19.6323 13.9251 19.9195 13.5844 20.1067C13.2476 20.2924 12.8688 20.3887 12.4842 20.3865C12.0818 20.3931 11.6856 20.2863 11.341 20.0782C11.0095 19.8772 10.744 19.5837 10.5771 19.2338C10.405 18.882 10.316 18.4953 10.317 18.1036ZM10.9354 18.1131C10.9097 18.5846 11.0686 19.0475 11.3785 19.4038C11.5183 19.5568 11.6893 19.6781 11.88 19.7595C12.0706 19.8408 12.2765 19.8803 12.4838 19.8753C12.6922 19.8806 12.8994 19.8407 13.091 19.7585C13.2826 19.6762 13.4542 19.5534 13.594 19.3987C13.9066 19.0206 14.0631 18.5375 14.0314 18.0479C14.0397 17.7165 13.9769 17.3871 13.8472 17.0819C13.7329 16.8188 13.5424 16.5959 13.3003 16.442C13.0584 16.29 12.7777 16.2111 12.4919 16.2148C12.2895 16.2117 12.0884 16.2488 11.9003 16.3239C11.7123 16.3989 11.541 16.5105 11.3963 16.6521C11.2251 16.852 11.096 17.0843 11.0168 17.3352C10.9376 17.5862 10.9099 17.8505 10.9354 18.1124V18.1131ZM15.6328 20.3102V15.779H16.2323V19.775H18.4636V20.3099L15.6328 20.3102ZM19.4244 20.3102V15.779H22.7008V16.3138H20.0239V17.7019H22.5305V18.2336H20.0239V19.7755H22.8059V20.3104L19.4244 20.3102ZM25.0213 20.3102V16.3138H23.5278V15.779H27.1193V16.3138H25.6204V20.3099L25.0213 20.3102ZM27.6722 18.1036C27.6347 17.4579 27.8528 16.8233 28.2793 16.337C28.4801 16.1261 28.7233 15.9602 28.9929 15.8502C29.2625 15.7402 29.5524 15.6886 29.8434 15.6988C30.2408 15.6934 30.632 15.7972 30.9745 15.9989C31.3074 16.1957 31.5746 16.4866 31.7423 16.835C31.9233 17.2145 32.0136 17.6308 32.0063 18.0511C32.0137 18.4784 31.9184 18.9013 31.7285 19.2841C31.5556 19.6332 31.2796 19.9207 30.9379 20.1076C30.601 20.2933 30.2223 20.3896 29.8377 20.3874C29.435 20.394 29.0385 20.287 28.6939 20.0785C28.3631 19.8773 28.0982 19.5838 27.9318 19.2341C27.7598 18.8822 27.671 18.4954 27.6722 18.1036ZM28.2906 18.1131C28.2649 18.5846 28.4238 19.0475 28.7337 19.4038C28.8735 19.5568 29.0445 19.6781 29.2352 19.7595C29.4259 19.8408 29.6318 19.8803 29.839 19.8753C30.0481 19.8812 30.2559 19.8417 30.4483 19.7596C30.6406 19.6774 30.8128 19.5545 30.9531 19.3993C31.2657 19.0212 31.4222 18.5381 31.3904 18.0485C31.3969 17.7167 31.3321 17.3873 31.2005 17.0826C31.0861 16.8194 30.8957 16.5966 30.6536 16.4426C30.4118 16.2907 30.1313 16.2118 29.8457 16.2154C29.6433 16.2123 29.4422 16.2494 29.2541 16.3245C29.066 16.3995 28.8947 16.5111 28.7499 16.6528C28.5791 16.8526 28.4504 17.0849 28.3714 17.3357C28.2925 17.5865 28.265 17.8506 28.2906 18.1123V18.1131Z" fill="white"></path></g><path d="M279.319 9.3328C279.059 9.71376 278.808 10.0224 278.623 10.367C278.048 11.4337 277.943 12.5528 278.372 13.6939C278.889 15.0714 279.871 15.9498 281.31 16.2888C282.691 16.6139 283.912 16.2606 284.976 15.3459C285.122 15.2199 285.205 15.2247 285.329 15.3541C285.556 15.5935 285.791 15.8269 286.029 16.055C286.146 16.1667 286.14 16.242 286.02 16.3524C284.852 17.4234 283.472 17.9256 281.897 17.8386C280.534 17.7633 279.346 17.2329 278.362 16.2823C277.578 15.5251 277.07 14.6056 276.817 13.545C276.6 12.6445 276.626 11.7463 276.867 10.8588C277.099 10.0008 277.519 9.2367 278.123 8.57868C278.305 8.38041 278.325 8.38041 278.514 8.56136C278.789 8.82327 279.062 9.08648 279.319 9.33324V9.3328Z" fill="white"></path><path d="M294.337 10.8884C294.798 10.8884 295.207 10.8806 295.615 10.8971C295.674 10.8997 295.757 11.0109 295.781 11.0871C296.066 11.9893 296.341 12.8941 296.621 13.798C296.634 13.8408 296.662 13.8789 296.712 13.9729C296.814 13.6357 296.9 13.353 296.985 13.0703C297.19 12.3902 297.39 11.7083 297.604 11.0313C297.625 10.9676 297.734 10.8936 297.805 10.8906C298.135 10.8759 298.468 10.8893 298.799 10.8819C298.965 10.8785 298.993 10.9863 299.031 11.1088C299.303 12.0006 299.58 12.8915 299.855 13.7828C299.872 13.837 299.894 13.8893 299.933 13.9945C300.099 13.4525 300.251 12.9573 300.402 12.462C300.54 12.0092 300.682 11.5577 300.813 11.1031C300.861 10.9386 300.948 10.872 301.123 10.8798C301.418 10.8927 301.713 10.885 302.009 10.8832C302.154 10.8824 302.228 10.9144 302.164 11.0858C301.823 11.9993 301.489 12.9149 301.155 13.8309C300.993 14.2755 300.832 14.7205 300.68 15.169C300.619 15.3513 300.542 15.4617 300.317 15.4435C300.016 15.4197 299.712 15.4335 299.41 15.4396C299.284 15.4422 299.218 15.4054 299.177 15.2755C298.957 14.5855 298.726 13.8989 298.498 13.2114C298.431 13.0084 298.359 12.8071 298.277 12.5677C298.076 13.1889 297.888 13.7742 297.698 14.3582C297.596 14.672 297.498 14.9876 297.38 15.2954C297.356 15.3586 297.253 15.4279 297.184 15.4309C296.853 15.4452 296.521 15.4288 296.19 15.4413C296.036 15.4469 295.969 15.379 295.922 15.2508C295.733 14.7318 295.541 14.2144 295.351 13.6958C295.045 12.8603 294.741 12.0244 294.436 11.1884C294.408 11.1096 294.383 11.0291 294.337 10.8884H294.337Z" fill="white"></path><path d="M289.29 13.6403C289.039 13.9442 288.676 14.1212 288.745 14.5814C288.778 14.7996 288.745 15.0264 288.753 15.2494C288.757 15.3853 288.714 15.4438 288.569 15.4407C288.238 15.4329 287.906 15.4338 287.575 15.4407C287.441 15.4433 287.393 15.3853 287.395 15.2628C287.396 15.2195 287.394 15.1767 287.394 15.1334C287.394 13.2567 287.394 11.3796 287.394 9.50297C287.394 9.16357 287.395 9.16313 287.727 9.1627C287.986 9.1627 288.246 9.17136 288.504 9.1601C288.692 9.15188 288.756 9.21725 288.755 9.40773C288.747 10.3497 288.751 11.2917 288.751 12.2338C288.751 12.3121 288.751 12.3905 288.751 12.5221C288.838 12.4433 288.895 12.3965 288.946 12.3441C289.361 11.9156 289.769 11.4796 290.195 11.0614C290.285 10.9723 290.438 10.9095 290.566 10.9013C290.911 10.8796 291.257 10.893 291.603 10.8948C291.673 10.8948 291.742 10.9065 291.863 10.9173C291.732 11.0675 291.636 11.1865 291.531 11.2969C291.14 11.7082 290.748 12.119 290.35 12.5234C290.253 12.6221 290.238 12.6896 290.318 12.8151C290.844 13.6372 291.36 14.4663 291.877 15.2935C291.895 15.3221 291.901 15.358 291.919 15.4126C291.853 15.4226 291.8 15.4373 291.748 15.4377C291.344 15.4394 290.941 15.4342 290.538 15.4416C290.405 15.4442 290.332 15.394 290.266 15.2806C289.956 14.7476 289.636 14.2204 289.29 13.6411L289.29 13.6403Z" fill="white"></path><path d="M308.368 15.7267C308.539 15.7982 308.667 15.8622 308.802 15.9064C309.175 16.0289 309.648 15.7224 309.642 15.3358C309.639 15.167 309.537 14.9968 309.468 14.8328C309.119 14.0141 308.766 13.1981 308.415 12.3803C308.245 11.9851 308.076 11.5899 307.909 11.1929C307.875 11.1098 307.855 11.021 307.811 10.8816C308.018 10.8816 308.187 10.8816 308.355 10.8816C308.579 10.8816 308.803 10.8686 309.025 10.8898C309.103 10.8972 309.215 10.9717 309.243 11.0422C309.528 11.7617 309.798 12.4877 310.074 13.2107C310.152 13.4159 310.237 13.6185 310.37 13.8232C310.451 13.5973 310.534 13.3717 310.612 13.1449C310.851 12.4535 311.092 11.7626 311.323 11.0686C311.371 10.9253 311.449 10.8782 311.591 10.8803C311.955 10.8855 312.319 10.8821 312.74 10.8821C312.611 11.2215 312.506 11.5072 312.394 11.7903C312.048 12.6708 311.701 13.5518 311.349 14.4302C311.105 15.0354 310.874 15.6471 310.594 16.2354C310.332 16.7882 309.864 17.0826 309.241 17.1203C308.774 17.1484 308.336 17.0713 307.958 16.7796C307.906 16.7393 307.842 16.6311 307.861 16.596C308.022 16.2969 308.202 16.0068 308.369 15.7263L308.368 15.7267Z" fill="white"></path><path d="M307.87 10.3799C307.624 10.3332 307.41 10.263 307.194 10.2583C306.87 10.2509 306.62 10.7232 306.789 10.9985C306.814 11.0392 306.897 11.06 306.954 11.0622C307.177 11.07 307.401 11.07 307.624 11.0652C307.772 11.0622 307.83 11.1237 307.824 11.2717C307.815 11.4726 307.817 11.6743 307.823 11.8752C307.827 12.0064 307.768 12.0557 307.643 12.054C307.427 12.0514 307.21 12.0635 306.995 12.0514C306.811 12.041 306.762 12.1163 306.763 12.2899C306.769 13.2388 306.766 14.1878 306.766 15.1363C306.766 15.4359 306.764 15.4363 306.475 15.4363C306.194 15.4363 305.913 15.4268 305.633 15.4398C305.459 15.448 305.412 15.3874 305.413 15.219C305.42 14.2557 305.41 13.2925 305.421 12.3293C305.424 12.1146 305.373 12.038 305.149 12.0488C304.814 12.0657 304.813 12.0514 304.813 11.7059C304.813 11.5622 304.819 11.418 304.811 11.2747C304.804 11.1289 304.862 11.0708 305.01 11.0635C305.413 11.044 305.413 11.0388 305.417 10.6466C305.424 9.80329 306.02 9.19289 306.913 9.11453C307.346 9.07644 307.755 9.16735 308.149 9.34527C308.286 9.40718 308.333 9.47818 308.25 9.62666C308.11 9.87645 307.99 10.1371 307.869 10.3791L307.87 10.3799Z" fill="white"></path><path d="M304.055 13.1793C304.055 13.8555 304.051 14.5321 304.059 15.2083C304.061 15.3893 303.999 15.4468 303.821 15.4399C303.512 15.4282 303.201 15.4308 302.892 15.439C302.74 15.4429 302.668 15.4005 302.668 15.2347C302.672 13.8533 302.671 12.4719 302.669 11.0905C302.669 10.9437 302.731 10.881 302.876 10.8818C303.2 10.8844 303.524 10.8862 303.848 10.8814C304.01 10.8792 304.058 10.955 304.057 11.1069C304.052 11.7974 304.055 12.4883 304.055 13.1793H304.055Z" fill="white"></path><path d="M293.86 13.1561C293.86 13.8393 293.855 14.522 293.863 15.2051C293.864 15.3796 293.813 15.4488 293.63 15.4415C293.321 15.4285 293.01 15.4328 292.701 15.4402C292.558 15.4436 292.493 15.4025 292.493 15.2471C292.497 13.8596 292.497 12.4722 292.494 11.0847C292.494 10.9492 292.545 10.8842 292.682 10.8847C293.013 10.886 293.344 10.8873 293.676 10.8838C293.837 10.8821 293.862 10.9752 293.861 11.1076C293.859 11.7908 293.86 12.4735 293.86 13.1566L293.86 13.1561Z" fill="white"></path><path d="M303.368 10.3824C302.949 10.3832 302.623 10.0516 302.626 9.62607C302.628 9.20659 302.944 8.88753 303.359 8.88623C303.791 8.88494 304.102 9.20226 304.097 9.63949C304.092 10.0689 303.785 10.3819 303.369 10.3828L303.368 10.3824Z" fill="white"></path><path d="M293.174 8.88624C293.593 8.88408 293.918 9.20226 293.919 9.61569C293.921 10.0521 293.608 10.3806 293.188 10.3832C292.761 10.3858 292.451 10.0681 292.451 9.62868C292.451 9.19707 292.751 8.88841 293.174 8.88624Z" fill="white"></path><path d="M279.944 14.2992C279.945 13.8905 280.538 13.3026 280.943 13.3139C281.12 13.3186 281.227 13.4052 281.222 13.5948C281.214 13.8931 281.034 14.1048 280.829 14.2845C280.688 14.4087 280.511 14.5018 280.336 14.5767C280.128 14.6659 279.944 14.5234 279.944 14.2996V14.2992Z" fill="white"></path><path d="M283.827 14.7884C283.792 14.8542 283.757 15.0244 283.671 15.0564C283.558 15.098 283.372 15.075 283.275 15.0023C282.944 14.7516 282.761 14.401 282.77 13.9806C282.773 13.872 282.855 13.7114 282.944 13.6728C283.035 13.633 283.205 13.6785 283.295 13.7464C283.615 13.9876 283.772 14.3296 283.827 14.7884Z" fill="white"></path><path d="M282.302 14.4032C282.27 14.7508 282.231 15.0413 282.015 15.2699C281.829 15.4664 281.591 15.4339 281.509 15.179C281.371 14.7499 281.405 14.3261 281.69 13.959C281.881 13.7144 282.115 13.7621 282.225 14.0569C282.27 14.182 282.284 14.3188 282.302 14.4032H282.302Z" fill="white"></path><path d="M279.704 13.1128C279.624 13.0929 279.487 13.0752 279.362 13.025C279.094 12.9167 279.056 12.6591 279.288 12.4886C279.658 12.2163 280.079 12.1894 280.503 12.3111C280.76 12.3847 280.789 12.6587 280.584 12.8336C280.346 13.0366 280.059 13.0869 279.704 13.1128Z" fill="white"></path><path d="M279.899 10.7424C280.228 10.7593 280.561 10.9411 280.809 11.2645C280.989 11.4978 280.872 11.7381 280.58 11.7714C280.222 11.8126 279.648 11.5208 279.474 11.2078C279.319 10.9307 279.459 10.7394 279.899 10.742V10.7424Z" fill="white"></path><defs><clipPath id="clip0_1_535"><rect width="26.3745" height="15.0223" fill="white" transform="translate(5.62968 5.36523)"></rect></clipPath></defs></svg>