<svg xmlns="http://www.w3.org/2000/svg" width="424" height="48" viewBox="0 0 424 48" fill="none"><path d="M417.141 -0.00012207H6.85944C3.05403 -0.00012207 0 3.05391 0 6.85932V40.1869C0 43.9681 3.05403 47.0221 6.85944 47.0221H417.141C420.946 47.0221 424 43.9681 424 40.1869V6.85932C424 3.05391 420.946 -0.00012207 417.141 -0.00012207Z" fill="#2A2D32"></path><path d="M39.3135 28.0449L33.8841 33.4985C32.8419 34.5407 31.1694 34.5407 30.1029 33.5227L24.3827 28.0691C23.8494 27.5601 23.5586 26.8329 23.5586 26.1058V19.0282C23.5586 17.5497 24.7705 16.3378 26.2491 16.3378H37.4229C38.9014 16.3378 40.1133 17.5497 40.1133 19.0282V26.13C40.1133 26.8572 39.8225 27.5359 39.3135 28.0449Z" fill="#D8D7E5"></path><path d="M71.8666 36.7939C70.9698 36.7939 70.2184 36.0667 70.2184 35.1699L70.0729 30.0556C67.9399 29.3769 66.3887 27.3652 66.3887 25.0141C66.3887 22.663 67.9157 20.6754 70.0487 19.9725V14.9067C70.0487 13.9856 70.7759 13.2343 71.6969 13.2343C72.618 13.2343 73.3451 13.9856 73.3451 14.9067V21.3541C73.3451 22.2751 72.618 23.0265 71.6969 23.0265C70.6062 23.0265 69.7093 23.9234 69.7093 25.0141C69.7093 26.1048 70.6062 27.0016 71.6969 27.0016C72.5937 27.0016 73.3208 27.7287 73.3451 28.6256L73.5148 35.0972C73.539 35.994 72.8119 36.7696 71.915 36.7939C71.8989 36.7939 71.8827 36.7939 71.8666 36.7939Z" fill="#D8D7E5"></path><path d="M98.6741 13.2577C99.571 13.2577 100.322 13.9848 100.347 14.8816L100.468 19.9959C102.601 20.6746 104.152 22.6864 104.152 25.0375C104.152 27.3886 102.625 29.3761 100.516 30.079V35.1448C100.516 36.0659 99.7649 36.8173 98.8438 36.8173C97.9228 36.8173 97.1956 36.0659 97.1956 35.1448V28.6975C97.1956 27.7764 97.9228 27.025 98.8438 27.025C99.9346 27.025 100.831 26.1282 100.831 25.0375C100.831 23.9468 99.9346 23.0499 98.8438 23.0499C97.947 23.0499 97.2199 22.3228 97.1956 21.426L97.026 14.9544C97.0017 14.0576 97.7289 13.2819 98.6499 13.2577C98.6499 13.2577 98.658 13.2577 98.6741 13.2577Z" fill="#D8D7E5"></path><path d="M140.485 36.6715C139.588 36.6715 138.861 35.9686 138.837 35.0718L138.716 29.9818C136.583 29.3031 135.031 27.2913 135.031 24.9402C135.031 22.6133 136.558 20.6016 138.667 19.9229V14.8571C138.667 13.936 139.418 13.2089 140.315 13.2089C141.236 13.2089 141.988 13.936 141.988 14.8571V21.3045C141.988 22.2255 141.236 22.9527 140.315 22.9527C139.224 22.9527 138.352 23.8495 138.352 24.9402C138.352 26.0309 139.224 26.9277 140.315 26.9277C141.212 26.9277 141.963 27.6306 141.988 28.5275L142.133 34.9748C142.157 35.8959 141.454 36.6473 140.533 36.6715C140.517 36.6715 140.501 36.6715 140.485 36.6715Z" fill="#D8D7E5"></path><path d="M158.518 22.9037H152.531C152.095 22.9037 151.731 22.5644 151.731 22.1038V20.4556C151.731 19.7527 150.859 19.3891 150.35 19.8981L146.181 24.0671C145.356 24.8912 145.356 26.2243 146.181 27.0242L150.35 31.1932C150.859 31.7264 151.731 31.3628 151.731 30.6357V28.6966C151.731 28.2603 152.095 27.8967 152.531 27.8967H158.518C158.978 27.8967 159.342 27.5332 159.342 27.0727V23.7278C159.342 23.2673 158.978 22.9037 158.518 22.9037Z" fill="#D8D7E5"></path><path d="M268.755 32.5759C267.833 32.5759 267.082 31.8245 267.082 30.8792V18.4692C267.082 17.5481 267.833 16.7968 268.755 16.7968C269.676 16.7968 270.427 17.5481 270.427 18.4692V30.8792C270.427 31.8245 269.676 32.5759 268.755 32.5759Z" fill="#D8D7E5"></path><path d="M276.291 31.4129L286.205 26.1774C287.417 25.5472 287.417 23.8021 286.205 23.1719L276.291 17.9606C275.152 17.3547 273.795 18.1788 273.795 19.4634V29.8859C273.795 31.1705 275.152 31.9946 276.291 31.4129Z" fill="#D8D7E5"></path><path d="M236.688 15.2948H233.222C231.622 15.2948 230.338 16.5794 230.338 18.1792V31.5102C230.338 33.1099 231.622 34.4188 233.222 34.4188H236.64C237.125 34.4188 237.585 34.2976 238.021 34.0795L250.892 27.1958C252.976 26.0809 252.928 23.0995 250.843 22.0573L237.997 15.5857C237.585 15.3918 237.149 15.2948 236.688 15.2948Z" fill="#D8D7E5"></path><path d="M200.549 31.4129L190.635 26.1774C189.424 25.5472 189.424 23.8021 190.635 23.1719L200.549 17.9606C201.664 17.3547 203.045 18.1788 203.045 19.4634V29.8859C203.045 31.1705 201.664 31.9946 200.549 31.4129Z" fill="#D8D7E5"></path><path d="M208.063 32.5759C207.142 32.5759 206.391 31.8245 206.391 30.8792V18.4692C206.391 17.5481 207.142 16.7968 208.063 16.7968C209.008 16.7968 209.76 17.5481 209.76 18.4692V30.8792C209.76 31.8245 209.008 32.5759 208.063 32.5759Z" fill="#D8D7E5"></path><path d="M334.875 36.7199C335.772 36.7199 336.499 36.017 336.524 35.1202L336.645 30.0544C338.778 29.3757 340.305 27.3639 340.305 25.0371C340.305 22.6859 338.778 20.7226 336.693 20.0197V14.9782C336.693 14.0814 335.942 13.33 335.045 13.33C334.124 13.33 333.397 14.0814 333.397 14.9782V21.4013C333.397 22.3224 334.124 23.0495 335.045 23.0495C336.136 23.0495 337.008 23.9463 337.008 25.0371C337.008 26.1278 336.136 27.0003 335.045 27.0003C334.148 27.0003 333.421 27.7275 333.397 28.6001L333.227 35.0232C333.203 35.9443 333.93 36.6956 334.827 36.7199C334.843 36.7199 334.859 36.7199 334.875 36.7199Z" fill="#D8D7E5"></path><path d="M316.648 23.0005H322.61C323.046 23.0005 323.41 22.6369 323.41 22.2006V20.5767C323.41 19.8495 324.283 19.486 324.792 19.995L328.961 24.164C329.76 24.9638 329.76 26.2969 328.961 27.121L324.792 31.2658C324.283 31.7748 323.41 31.4112 323.41 30.7083V28.7692C323.41 28.3329 323.046 27.9694 322.61 27.9694H316.648C316.187 27.9694 315.848 27.6058 315.848 27.1695V23.8246C315.848 23.3641 316.187 23.0005 316.648 23.0005Z" fill="#D8D7E5"></path><path d="M373.051 25.5467V24.1893H368.058C366.894 24.1893 365.949 25.1346 365.949 26.298V32.1637C365.949 33.3272 366.894 34.2724 368.058 34.2724H374.069C375.232 34.2724 376.178 33.3272 376.178 32.1637V29.1582C374.408 28.8916 373.051 27.3888 373.051 25.5467Z" fill="#D8D7E5"></path><path d="M391.327 24.1893H386.746V25.5467C386.746 27.51 385.17 29.1339 383.207 29.1824V32.1637C383.207 33.3272 384.152 34.2724 385.316 34.2724H391.327C392.49 34.2724 393.436 33.3272 393.436 32.1637V26.298C393.436 25.1346 392.49 24.1893 391.327 24.1893Z" fill="#D8D7E5"></path><path d="M376.687 28.3101C375.16 28.3101 373.924 27.074 373.924 25.547V20.2873C373.924 18.7603 375.16 17.4999 376.687 17.4999H383.086C384.613 17.4999 385.873 18.7603 385.873 20.2873V25.547C385.873 27.074 384.613 28.3101 383.086 28.3101H376.687Z" fill="#2A2D32"></path><path fill-rule="evenodd" clip-rule="evenodd" d="M386.745 20.2868V25.5465C386.745 27.5583 385.097 29.1823 383.085 29.1823H376.687C374.675 29.1823 373.051 27.5583 373.051 25.5465V20.2868C373.051 18.2751 374.675 16.6268 376.687 16.6268H383.085C385.097 16.6268 386.745 18.2751 386.745 20.2868ZM385 20.2868C385 19.2203 384.152 18.372 383.085 18.372H376.687C375.644 18.372 374.796 19.2203 374.796 20.2868V25.5465C374.796 26.5888 375.644 27.4371 376.687 27.4371H383.085C384.152 27.4371 385 26.5888 385 25.5465V20.2868Z" fill="#D8D7E5"></path><path d="M380.565 20.6988L382.771 23.6558C383.183 24.2133 382.795 24.9889 382.117 24.9889H377.681C377.002 24.9889 376.615 24.2133 377.027 23.6558L379.232 20.6988C379.572 20.2383 380.226 20.2383 380.565 20.6988Z" fill="#D8D7E5"></path></svg>